<svg id="epve1Ymxduk1" xmlns="http://www.w3.org/2000/svg" xmlns:xlink="http://www.w3.org/1999/xlink" viewBox="0 0 3403 3185" shape-rendering="geometricPrecision" text-rendering="geometricPrecision"><g><path d="M631.516,2506.43C603.166,1548.29,2006.58,629.031,2771.53,606.397c764.96-22.634,601.79,859.923,630.14,1818.063s-460.69,664.76-1225.65,687.39c-764.95,22.64-1516.154,352.72-1544.504-605.42Z" fill="#edf8f8"/><path d="M694.325,2487.38C667.167,1569.51,2011.59,688.888,2744.4,667.205c732.8-21.682,576.49,823.785,603.65,1741.655c27.15,917.87-441.33,636.81-1174.13,658.5-732.81,21.68-1452.436,337.89-1479.595-579.98Z" fill="#d0e4e4"/></g><g id="epve1Ymxduk5" opacity="0"><path d="M339.366,394.201c-90.902,98.477-91.847,330.655-91.847,330.655s-162.4103,22.607-205.0131,101.041C-30.6718,960.623,360.099,1056.68,360.099,1056.68s-124.957,347.32,17.863,449.86c146.426,105.13,438.318-144.68,438.318-144.68s188.9,274.07,358.36,251.47c159.06-21.22,279.76-300.96,279.76-300.96s279.41,81.34,384.48-26.42c95.4-97.84,42.88-347.288,42.88-347.288s224.28-277.393,129.16-420.392c-84.31-126.751-379.74-88.04-379.74-88.04s-181.11-312.193-374.29-325.152c-186.1-12.4826-406.223,251.168-406.223,251.168s-375.492-109.171-511.301,37.955Z" fill="#fff" stroke="#000" stroke-width="2.39829"/><path d="M776.275,840.58c0,86.317-69.974,156.29-156.291,156.29s-156.291-69.973-156.291-156.29s69.974-156.291,156.291-156.291s156.291,69.974,156.291,156.291Z" fill="#85dbee"/><path d="M624.09,853.317c2.941,0,5.761,1.168,7.841,3.248c2.079,2.079,3.247,4.9,3.247,7.84v3.697c0,14.57-13.749,29.569-36.961,29.569-23.213,0-36.962-14.999-36.962-29.569v-3.697c0-2.94,1.168-5.761,3.247-7.84c2.08-2.08,4.9-3.248,7.841-3.248h51.747Zm-25.873-48.05c5.391,0,10.562,2.141,14.374,5.954c3.813,3.812,5.955,8.983,5.955,14.375c0,5.391-2.142,10.562-5.955,14.374-3.812,3.813-8.983,5.955-14.374,5.955-5.392,0-10.563-2.142-14.375-5.955-3.813-3.812-5.954-8.983-5.954-14.374c0-5.392,2.141-10.563,5.954-14.375c3.812-3.813,8.983-5.954,14.375-5.954Zm66.531-25.874c3.729.001,7.319,1.411,10.053,3.947c2.733,2.536,4.407,6.011,4.687,9.729l.045,1.109v14.785c.001,3.73-1.408,7.322-3.944,10.057-2.537,2.735-6.013,4.411-9.732,4.69l-1.109.037h-11.096l-8.856,11.828c-3.918,5.219-11.858,3.105-13.136-2.779l-.126-.821-.052-.835v-7.873l-.576-.148c-2.658-.805-5.035-2.341-6.861-4.432-1.826-2.092-3.027-4.654-3.467-7.396l-.147-1.227-.037-1.101v-14.785c-.002-3.73,1.407-7.323,3.943-10.058c2.537-2.735,6.013-4.41,9.732-4.69l1.109-.037h29.57Z"/><path d="M1025.74,704.072c0,86.317-69.974,156.29-156.291,156.29s-156.291-69.973-156.291-156.29s69.974-156.291,156.291-156.291s156.291,69.974,156.291,156.291Z" fill="#ca8eef"/><path d="M906.611,643.684c.001-.92-.27-1.82-.781-2.585-.51-.766-1.236-1.362-2.086-1.715-.85-.352-1.785-.444-2.687-.264s-1.731.624-2.381,1.275l-18.58,18.581c-.431.432-.773.945-1.006,1.509-.233.565-.352,1.169-.351,1.78v25.948l-6.884,6.875c-1.377-.365-2.82-.41-4.217-.13s-2.711.877-3.841,1.745-2.046,1.984-2.677,3.261c-.63,1.278-.96,2.683-.962,4.108.001,1.322.284,2.629.83,3.833s1.343,2.278,2.337,3.149c.994.872,2.163,1.521,3.428,1.905c1.266.383,2.598.492,3.909.32c1.311-.173,2.57-.624,3.693-1.322c1.122-.698,2.083-1.628,2.818-2.727s1.226-2.343,1.442-3.647c.215-1.305.15-2.64-.192-3.917l6.885-6.885h25.948c.61.002,1.215-.118,1.779-.35.564-.233,1.077-.575,1.51-1.006l18.58-18.581c.652-.65,1.096-1.478,1.275-2.38.18-.902.088-1.838-.264-2.687-.352-.85-.949-1.576-1.714-2.087-.766-.51-1.665-.782-2.585-.78h-23.226v-23.226Zm18.06,52.751c1.599,11.568-.476,23.346-5.932,33.672-5.455,10.325-14.016,18.677-24.473,23.875-10.458,5.198-22.284,6.981-33.809,5.096s-22.167-7.341-30.424-15.6c-8.257-8.258-13.711-18.902-15.594-30.427-1.882-11.525-.097-23.351,5.103-33.807c5.2-10.457,13.553-19.016,23.88-24.469c10.326-5.454,22.105-7.526,33.673-5.926l-3.558,3.559c-1.296,1.294-2.324,2.83-3.025,4.521-.702,1.692-1.063,3.505-1.063,5.336-8.269,0-16.352,2.452-23.227,7.046-6.875,4.593-12.234,11.123-15.398,18.762s-3.992,16.045-2.379,24.155s5.595,15.559,11.442,21.406s13.296,9.828,21.406,11.442c8.109,1.613,16.515.785,24.155-2.379c7.639-3.165,14.168-8.523,18.762-15.398c4.594-6.876,7.046-14.958,7.046-23.227c3.695-.003,7.237-1.474,9.848-4.088l3.567-3.549Zm-55.222-24.88c-6.431,0-12.718,1.907-18.066,5.48-5.347,3.573-9.515,8.652-11.976,14.593-2.461,5.942-3.105,12.48-1.85,18.788c1.255,6.307,4.352,12.101,8.899,16.649c4.548,4.547,10.341,7.644,16.649,8.899c6.308,1.254,12.846.61,18.787-1.851c5.942-2.461,11.02-6.629,14.593-11.976s5.48-11.634,5.48-18.065h-12.811l-1.162,1.161c-.223,3.569-1.471,6.998-3.595,9.875s-5.033,5.08-8.378,6.345-6.984,1.537-10.48.785c-3.496-.753-6.701-2.498-9.23-5.027-2.529-2.528-4.274-5.733-5.026-9.229-.753-3.496-.48-7.135.785-10.48c1.264-3.345,3.467-6.254,6.344-8.378s6.306-3.373,9.875-3.596l1.162-1.161v-12.812Z"/><path d="M1274.26,840.58c0,86.317-69.97,156.29-156.29,156.29-86.31,0-156.286-69.973-156.286-156.29s69.976-156.291,156.286-156.291c86.32,0,156.29,69.974,156.29,156.291Z" fill="#f3bf71"/><path d="M1074.28,775.918l-6.7,6.688l9.96,9.96l6.69-6.687-9.96-9.961h.01Zm87.4,0l-9.97,9.961l6.7,6.687l9.96-9.955-6.7-6.693h.01Zm-43.71,2.968c-1.57.019-3.15.11-4.75.305-.05,0-.1-.01-.15,0-19.29,2.212-34.64,17.799-37.31,37.006-2.13,15.459,4.24,29.477,14.86,38.505c4.35,3.708,7.29,8.796,8.33,14.413v28.539h10.84c1.66,2.84,4.68,4.757,8.18,4.757c3.51,0,6.53-1.917,8.19-4.757h10.84v-19.026h.45v-5.651c0-6.973,3.62-14.004,9.51-19.469c7.88-7.886,13.82-19.088,13.82-31.955c0-23.497-19.34-42.885-42.81-42.667Zm0,9.514c18.39-.257,33.3,14.793,33.3,33.153c0,9.961-4.61,18.732-11,25.115l.15.152c-6.35,5.854-10.45,13.741-11.61,22.299h-20.8c-1.05-8.152-4.54-16.044-11.15-21.704-8.41-7.135-13.41-17.885-11.74-30.024c2.08-14.983,14.24-27.032,29.13-28.682c1.23-.172,2.47-.273,3.71-.305l.01-.004Zm-66.59,33.153v9.513h14.27v-9.513h-14.27Zm118.92,0v9.513h14.27v-9.513h-14.27Zm-92.76,38.5l-9.96,9.956l6.7,6.692l9.95-9.96-6.69-6.688Zm80.87,0l-6.69,6.688l9.95,9.96l6.7-6.692-9.96-9.956Zm-49.95,18.58h19.03v9.513h-19.03v-9.513Z"/><circle r="156.291" transform="translate(1384.47 701.457)" fill="#f85b5b"/><path d="M1334.26,659.074h112.26v89.806h-112.26v-89.806Z" fill="#d0cfce"/><path d="M1343.2,679.347h17.97v24.884h-17.97v-24.884Z" fill="#3f3f3f"/><path d="M1436.26,739.782h-55.07v-59.286h55.07v31.371v27.915Z" fill="#9b9b9a"/><path d="M1370.75,747.459v-77.486m-36.49-10.899h112.26v89.806h-112.26v-89.806Zm2.38,10.899h107.92-107.92Z" fill="none" stroke="#000" stroke-width="4.49052" stroke-linecap="round" stroke-linejoin="round" stroke-miterlimit="10"/><path d="M1381.19,680.496l55.07,59.286m-93.06-60.435h17.97v24.884h-17.97v-24.884Zm93.06,60.435h-55.07v-59.286h55.07v31.371v27.915ZM1343,719.294h11.45-11.45Zm0,8.981h18.65-18.65Zm0,8.981h11.45-11.45Zm38.19,2.526l55.07-59.286-55.07,59.286Z" fill="none" stroke="#000" stroke-width="4.49052" stroke-linecap="round" stroke-linejoin="round" stroke-miterlimit="10"/><circle r="156.291" transform="translate(1607.09 840.58)" fill="#a6eb9b"/><path d="M1577.07,799.277l-13.86,13.855m34.64-6.927h55.42-55.42Zm0,32.328h55.42-55.42Zm0,32.327h55.42-55.42Zm-34.64-71.583l13.86,13.855-13.86-13.855Z" fill="none" stroke="#000" stroke-width="9.23653" stroke-linecap="round" stroke-linejoin="round"/><path d="M1570.14,847.769c5.1,0,9.24-4.135,9.24-9.237c0-5.101-4.14-9.236-9.24-9.236s-9.24,4.135-9.24,9.236c0,5.102,4.14,9.237,9.24,9.237Z" fill="none" stroke="#000" stroke-width="9.23653" stroke-linecap="round" stroke-linejoin="round"/><path d="M1570.14,880.097c5.1,0,9.24-4.135,9.24-9.236c0-5.102-4.14-9.237-9.24-9.237s-9.24,4.135-9.24,9.237c0,5.101,4.14,9.236,9.24,9.236Z" fill="none" stroke="#000" stroke-width="9.23653" stroke-linecap="round" stroke-linejoin="round"/><path d="M467.22,1000.68c-.181,0-.452-.03-.814-.11-.325-.11-.669-.21-1.031-.32-.361-.15-.705-.274-1.031-.383-.325-.144-.542-.253-.651-.325-.036-.073-.054-.145-.054-.217-.036-.073-.054-.163-.054-.271c0-.507.199-.941.597-1.303.398-.361.85-.651,1.356-.868.543-.253,1.067-.434,1.574-.543.506-.144.904-.235,1.194-.271h.651.542c.868.073,1.972.181,3.31.326c1.339.144,2.749.307,4.232.488c1.52.145,3.039.308,4.558.488c1.556.145,2.949.308,4.178.489c1.266.144,2.316.271,3.148.38.868.072,1.374.108,1.519.108.289.036.651.109,1.085.217.47.073.941.217,1.411.434.47.181.904.416,1.302.706.398.253.687.575.868.975-.289.58-.542,1.03-.759,1.36-.217.29-.453.52-.706.7-.253.15-.524.22-.814.22-.253,0-.578,0-.976,0-1.52,0-3.057-.05-4.613-.16-1.519-.11-3.038-.22-4.557-.33-1.52-.11-3.057-.22-4.613-.32-1.519-.11-3.056-.17-4.612-.17c0,.65-.09,1.63-.271,2.93-.145,1.31-.271,2.68-.38,4.13-.072,1.44-.036,2.89.109,4.34.181,1.41.597,2.6,1.248,3.58c1.266-.76,2.586-1.16,3.961-1.19c1.374-.04,2.767-.06,4.178-.06.615,0,1.392,0,2.333,0c.94,0,1.845.11,2.713.33.904.21,1.664.58,2.279,1.08.615.51.922,1.27.922,2.28c0,.72-.144,1.27-.434,1.63-.289.36-.958.54-2.007.54-.109,0-.344-.05-.706-.16-.325-.11-.687-.24-1.085-.38-.362-.15-.705-.27-1.031-.38-.325-.11-.543-.16-.651-.16-.036,0-.181,0-.434,0-.217-.04-.488-.06-.814-.06s-.651,0-.977,0c-.289-.03-.524-.05-.705-.05-.832,0-1.646.05-2.442.16-.76.11-1.429.33-2.007.65-.579.33-1.05.8-1.411,1.41-.326.62-.489,1.41-.489,2.39c0,.33.037.89.109,1.68.072.8.163,1.68.271,2.66.145.94.326,1.92.543,2.93s.506,1.95.868,2.82c.362.83.76,1.54,1.194,2.12.47.54,1.031.81,1.682.81.072,0,.253-.02.542-.05.29-.04.471-.06.543-.06c1.23-.83,2.46-1.73,3.69-2.71c1.266-.98,2.568-1.88,3.906-2.71c1.339-.87,2.732-1.59,4.179-2.17c1.447-.62,2.948-.92,4.503-.92v2.65c0,.15-.362.55-1.085,1.2-.687.65-1.61,1.41-2.767,2.28-1.122.86-2.388,1.79-3.799,2.76-1.41.98-2.821,1.88-4.232,2.72-1.411.79-2.767,1.46-4.069,2-1.267.55-2.334.82-3.202.82-1.23,0-2.333-.54-3.31-1.63-.94-1.12-1.79-2.59-2.55-4.39-.76-1.85-1.393-3.97-1.899-6.35-.507-2.39-.959-4.85-1.357-7.38-.361-2.53-.669-5.05-.922-7.54-.217-2.54-.398-4.87-.543-7-.144-2.14-.253-3.98-.325-5.54-.036-1.59-.073-2.69-.109-3.31Zm32.394,20.24c0-.9.145-1.61.434-2.12.326-.5.995-.76,2.008-.76.108,0,.307.02.596.06.326,0,.525,0,.597,0c.254,1.12.507,2.35.76,3.69.289,1.3.615,2.62.977,3.96.361,1.34.759,2.66,1.193,3.96.471,1.3,1.031,2.48,1.682,3.53.652-.69,1.122-1.5,1.411-2.44.29-.94.507-1.89.651-2.83.145-.97.272-1.89.38-2.76.145-.91.416-1.67.814-2.28.398-.65.977-1.12,1.736-1.41.796-.29,1.881-.29,3.256,0c1.519,0,2.731.29,3.636.87.904.54,1.682,1.24,2.333,2.11.687.83,1.338,1.74,1.953,2.71.651.95,1.465,1.8,2.442,2.55.217-.47.488-1.04.814-1.73.325-.72.723-1.47,1.193-2.23.507-.79,1.031-1.57,1.574-2.33.579-.8,1.176-1.5,1.791-2.12.615-.65,1.248-1.17,1.899-1.57.651-.43,1.284-.65,1.899-.65c1.483,0,2.767.47,3.852,1.41c1.086.91,2.008,2.06,2.768,3.47.796,1.38,1.447,2.93,1.953,4.67.506,1.7.904,3.35,1.194,4.94.289,1.59.488,3.05.597,4.39.144,1.3.217,2.25.217,2.82c0,.47-.109.84-.326,1.09s-.488.45-.814.6c-.325.1-.687.18-1.085.21-.362.04-.705.06-1.031.06-.072,0-.181,0-.325,0-.145-.04-.308-.07-.489-.11-.145-.04-.343-.09-.597-.16l-3.527-16.23c0-.11-.144-.31-.434-.59-.289-.33-.506-.53-.651-.6-.108,0-.199-.02-.271-.06-.073,0-.127,0-.163,0-.036-.03-.072-.05-.108-.05-.76,0-1.484.31-2.171.92-.651.62-1.266,1.4-1.845,2.34s-1.121,1.99-1.628,3.14c-.506,1.16-.958,2.32-1.356,3.48-.398,1.12-.76,2.17-1.085,3.14-.29.94-.525,1.67-.706,2.17-.144.08-.434.15-.868.22-.434.04-.723.05-.868.05-1.013,0-1.791-.34-2.333-1.03-.543-.72-.995-1.61-1.357-2.66-.325-1.04-.615-2.18-.868-3.41-.217-1.27-.506-2.43-.868-3.48-.326-1.05-.796-1.91-1.411-2.6-.579-.72-1.411-1.09-2.496-1.09-.398,0-.778.4-1.139,1.2-.362.79-.688,1.81-.977,3.04-.289,1.19-.561,2.49-.814,3.9-.253,1.38-.47,2.68-.651,3.91-.145,1.19-.253,2.21-.326,3.04-.072.83-.108,1.25-.108,1.25-.072.1-.217.23-.434.38-.217.1-.452.23-.706.38-.217.14-.452.25-.705.32-.217.07-.38.11-.488.11-1.013,0-1.99-.45-2.93-1.36-.941-.94-1.809-2.13-2.605-3.58-.76-1.48-1.465-3.11-2.116-4.88-.615-1.77-1.14-3.51-1.574-5.21s-.777-3.24-1.031-4.61c-.217-1.38-.325-2.43-.325-3.15Zm48.834,2.77c0-3.51.814-6.12,2.442-7.82s4.124-2.55,7.488-2.55c1.375,0,2.785.13,4.232.38c1.484.26,2.84.71,4.07,1.36c1.23.62,2.225,1.48,2.984,2.6.796,1.13,1.194,2.57,1.194,4.35c0,1.95-.434,3.79-1.302,5.53-.832,1.7-1.899,3.31-3.202,4.83-1.266,1.48-2.676,2.88-4.232,4.18-1.519,1.26-2.948,2.48-4.287,3.63-.072.15-.144.46-.217.93-.036.43-.054.72-.054.86c0,1.2.344,2.39,1.031,3.58.724,1.23,1.501,2.46,2.333,3.69.832,1.27,1.592,2.57,2.279,3.91.688,1.34,1.031,2.73,1.031,4.18c0,.87-.181,1.37-.542,1.52-.362.18-1.122.27-2.279.27-.724-.29-1.447-.98-2.171-2.06-.687-1.05-1.392-2.35-2.116-3.91-.687-1.55-1.375-3.31-2.062-5.26-.651-1.92-1.284-3.87-1.899-5.86-.579-2.03-1.139-4.02-1.682-5.97-.506-1.99-.959-3.82-1.357-5.48-.397-1.67-.759-3.09-1.085-4.29-.289-1.23-.488-2.1-.597-2.6Zm4.613.49c0,.54.036,1.33.108,2.38.072,1.02.217,2.03.434,3.04.253,1.02.615,1.9,1.085,2.66.471.72,1.122,1.09,1.954,1.09c1.121,0,2.243-.38,3.364-1.14c1.157-.76,2.17-1.72,3.038-2.88.905-1.16,1.628-2.39,2.171-3.69.579-1.34.868-2.55.868-3.63c0-.91-.217-1.61-.651-2.12-.434-.54-.995-.96-1.682-1.25-.651-.32-1.357-.52-2.116-.6-.76-.1-1.483-.16-2.171-.16-2.062,0-3.653.56-4.775,1.68-1.085,1.09-1.627,2.63-1.627,4.62Zm44.33,12.53c-1.374.94-2.568,1.79-3.581,2.55-.976.72-1.935,1.34-2.876,1.85-.94.5-1.953.88-3.038,1.13-1.049.26-2.351.38-3.907.38-3.364,0-5.86-.88-7.488-2.65-1.628-1.81-2.442-4.49-2.442-8.03c0-1.38.181-2.81.543-4.29s.886-2.95,1.574-4.4c.723-1.48,1.573-2.87,2.55-4.17.976-1.34,2.08-2.52,3.31-3.53s2.532-1.81,3.906-2.39c1.411-.61,2.894-.92,4.45-.92c2.604.25,4.648.9,6.131,1.95c1.483,1.02,2.605,2.34,3.364,3.96.76,1.59,1.285,3.39,1.574,5.38.289,1.95.506,3.97.651,6.07.181,2.1.398,4.2.651,6.3.253,2.09.778,4.03,1.574,5.8-.47,1.2-.923,2.03-1.357,2.5-.398.5-.85.6-1.356.27-.507-.33-1.104-1.12-1.791-2.39-.651-1.26-1.465-3.05-2.442-5.37Zm-18.719-4.67c0,2.07.379,3.59,1.139,4.56.796.94,2.189,1.41,4.178,1.41c1.483,0,2.894-.25,4.232-.76c1.375-.54,2.569-1.26,3.582-2.17c1.012-.94,1.826-2.06,2.441-3.36s.923-2.75.923-4.34c0-.65.018-1.56.054-2.72.036-1.19-.036-2.36-.217-3.52s-.525-2.15-1.031-2.99c-.506-.86-1.266-1.3-2.279-1.3-1.881,0-3.617.49-5.209,1.47-1.592.94-2.966,2.15-4.124,3.63-1.157,1.48-2.062,3.13-2.713,4.94-.651,1.77-.976,3.49-.976,5.15Zm27.889-15.68c0-.11.019-.2.055-.27c0-.07.018-.16.054-.27.145-.18.362-.42.651-.71.289-.28.47-.43.543-.43h10.906c0-.4-.054-1.03-.163-1.9-.108-.87-.217-1.83-.325-2.87-.073-1.05-.091-2.14-.055-3.26.037-1.16.181-2.19.435-3.09.289-.94.723-1.7,1.302-2.28.615-.62,1.465-.92,2.55-.92c0,3.65.253,6.58.76,8.79.506,2.2,1.175,3.9,2.007,5.1.869,1.19,1.845,1.97,2.93,2.33c1.086.36,2.189.52,3.31.49c1.158-.07,2.279-.26,3.364-.54c1.086-.29,2.044-.49,2.876-.6.868-.11,1.556-.02,2.062.27.507.25.76.89.76,1.9c0,.76-.181,1.3-.543,1.63-.325.32-.976.58-1.953.76-.29.03-.778.1-1.465.21-.651.08-1.393.15-2.225.22s-1.718.16-2.659.27c-.94.07-1.826.15-2.658.22s-1.592.13-2.279.16c-.688,0-1.194,0-1.52,0c0,.18-.018.49-.054.92-.036.44-.054.73-.054.87c0,1.59.253,3.15.759,4.67.507,1.48,1.05,2.96,1.628,4.45.615,1.48,1.176,2.96,1.682,4.45.507,1.48.76,3.02.76,4.61c0,.29-.036.6-.108.92-.037.29-.145.56-.326.82-.145.21-.38.38-.705.48-.29.15-.706.13-1.248-.05-1.375-.36-2.406-1.14-3.093-2.33-.651-1.2-1.14-2.61-1.465-4.24-.326-1.66-.543-3.41-.651-5.26-.109-1.84-.29-3.56-.543-5.15-.217-1.63-.579-3.01-1.085-4.13-.507-1.15-1.321-1.86-2.442-2.11l-10.472-2.39c-.145,0-.362-.15-.651-.44-.29-.32-.471-.56-.543-.7-.036-.07-.054-.16-.054-.27-.036-.07-.055-.18-.055-.33Zm37.657-7.92c0-.4.036-.89.109-1.46.108-.62.271-1.2.488-1.74.253-.54.561-1,.923-1.36.361-.4.832-.59,1.41-.59.037,0,.127.01.272.05.144.04.235.05.271.05.615,2.25.977,4.47,1.085,6.68.109,2.2.073,4.36-.108,6.46-.181,2.06-.452,4.06-.814,6.02-.362,1.92-.669,3.69-.923,5.32-.217,1.62-.361,3.09-.434,4.39-.036,1.3.163,2.41.597,3.31-.072-.58-.126-1.27-.163-2.06c0-.83.073-1.68.217-2.55.181-.87.453-1.74.814-2.61.398-.86.959-1.64,1.682-2.33.724-.69,1.646-1.23,2.768-1.63c1.157-.39,2.586-.59,4.286-.59c1.773,0,3.292.3,4.558.92c1.302.61,2.37,1.46,3.202,2.55.832,1.05,1.446,2.3,1.844,3.74.434,1.41.651,2.93.651,4.56c0,.76-.018,1.63-.054,2.61c0,.94-.126,1.82-.38,2.65-.217.8-.633,1.49-1.248,2.07-.578.54-1.447.81-2.604.81c0-.58.036-1.36.108-2.33.073-1.02.109-2.08.109-3.2.036-1.13,0-2.27-.109-3.42-.072-1.16-.307-2.19-.705-3.1-.398-.94-.959-1.7-1.682-2.27-.687-.62-1.646-.93-2.876-.93-.434,0-.977.04-1.628.11-.615.04-1.248.2-1.899.49s-1.284.74-1.899,1.36c-.615.57-1.103,1.39-1.465,2.44-.362,1.01-.579,2.31-.651,3.9-.036,1.56.163,3.48.597,5.76-.253.65-.579,1.03-.977,1.14-.362.1-.832.16-1.411.16-1.157,0-2.116-.4-2.875-1.2-.724-.83-1.285-1.93-1.683-3.31-.397-1.37-.669-2.96-.813-4.77-.109-1.81-.145-3.69-.109-5.64.036-1.99.127-4,.271-6.03.181-2.06.344-3.99.489-5.8.181-1.85.343-3.51.488-4.99.181-1.52.271-2.74.271-3.64Zm27.185,14.92c0-.21,0-.56,0-1.03.036-.51.054-1.03.054-1.57.036-.54.054-1.07.054-1.58.037-.5.055-.86.055-1.08.398-.58.904-1.05,1.519-1.41.651-.36,1.302-.65,1.953-.87.109,1.95.416,4.03.923,6.24.506,2.21,1.049,4.43,1.628,6.67.578,2.21,1.085,4.4,1.519,6.57.47,2.17.705,4.2.705,6.08c0,1.62-.832,2.44-2.496,2.44-1.013,0-1.863-.42-2.55-1.25s-1.248-1.88-1.682-3.15c-.398-1.3-.724-2.73-.977-4.28-.253-1.59-.434-3.15-.542-4.67-.073-1.52-.127-2.91-.163-4.18c0-1.26,0-2.24,0-2.93Zm.76-20.35c.687.29,1.266.76,1.736,1.42.47.65.669,1.24.597,1.79-.036.5-.434.86-1.194,1.08-.76.18-2.026-.04-3.798-.65c0-.98.181-1.83.542-2.55.398-.72,1.104-1.09,2.117-1.09Zm28.432,13.95c.072-.07.127-.16.163-.27.072-.15.108-.26.108-.33c0-.83-.506-1.37-1.519-1.63-.977-.28-2.207-.41-3.69-.38-1.483,0-3.093.08-4.829.22-1.7.15-3.292.22-4.775.22-1.483-.04-2.731-.22-3.744-.54-.976-.37-1.465-1.02-1.465-1.96c0-.61.036-1.06.109-1.35.108-.33.253-.55.434-.65.181-.15.398-.22.651-.22.289-.04.597-.06.922-.06h1.411c.434.04,1.14.09,2.116.17.977.03,2.08.09,3.31.16c1.23.04,2.514.11,3.853.22c1.374.07,2.658.14,3.852.21c1.23.08,2.315.15,3.256.22.977.07,1.718.13,2.225.16.651.4,1.193.76,1.627,1.09.471.32.832.65,1.086.98.289.32.488.68.596,1.08.145.36.217.83.217,1.41c0,1.23-.253,2.44-.759,3.64-.507,1.15-1.158,2.33-1.954,3.52-.759,1.16-1.645,2.34-2.658,3.53-.977,1.16-1.936,2.32-2.876,3.47-.941,1.16-1.827,2.32-2.659,3.48-.832,1.15-1.483,2.28-1.953,3.36h13.945c1.049,0,1.718.2,2.007.6.29.4.434.96.434,1.68c0,.51-.054.98-.162,1.41-.109.43-.489.76-1.14.98-1.736.14-3.491.36-5.263.65-1.773.29-3.545.58-5.318.87-1.772.29-3.563.54-5.371.76-1.773.21-3.545.32-5.318.32c0-2.6.398-5.1,1.194-7.49.832-2.42,1.881-4.75,3.147-7c1.302-2.24,2.713-4.41,4.232-6.51c1.556-2.1,3.075-4.1,4.558-6.02Zm12.751,11.67c0-1.96.235-3.91.706-5.86.47-1.96,1.211-3.71,2.224-5.27c1.049-1.55,2.388-2.82,4.016-3.8c1.664-.97,3.671-1.46,6.023-1.46c1.338,0,2.514.25,3.527.76c1.012.47,1.862,1.1,2.55,1.9.687.79,1.193,1.73,1.519,2.82.362,1.05.543,2.15.543,3.31c0,1.84-.434,3.63-1.303,5.37-.832,1.74-1.971,3.27-3.418,4.61-1.411,1.31-3.039,2.3-4.883,2.99-1.845.65-3.726.79-5.644.43.037,1.05.38,1.9,1.031,2.55.688.62,1.502,1.09,2.442,1.41.941.33,1.917.55,2.93.65c1.013.08,1.917.11,2.713.11.832,0,1.61-.07,2.333-.21.724-.15,1.447-.31,2.171-.49.723-.18,1.447-.35,2.17-.49.76-.15,1.556-.22,2.388-.22.325,0,.651.02.976.06.326.03.633.12.923.27.289.11.524.3.705.59.181.26.272.58.272.98c0,.69-.254,1.27-.76,1.74-.507.43-1.158.81-1.953,1.14-.76.32-1.61.58-2.551.76-.94.14-1.863.27-2.767.38-.868.07-1.682.1-2.442.1-.723.04-1.266.06-1.628.06-2.315,0-4.395-.36-6.24-1.09-1.844-.76-3.4-1.79-4.666-3.09-1.266-1.34-2.243-2.93-2.93-4.77-.651-1.89-.977-3.97-.977-6.24Zm5.752-3.53c0,1.26.163,2.19.488,2.77.362.57,1.212.86,2.551.86.94,0,1.862-.16,2.767-.48.904-.37,1.718-.85,2.442-1.47.759-.61,1.356-1.34,1.79-2.17s.651-1.74.651-2.71c0-.55-.054-1.11-.163-1.68-.072-.58-.253-1.11-.542-1.58-.29-.5-.669-.9-1.14-1.19-.434-.33-1.012-.49-1.736-.49-1.085,0-2.08.25-2.984.76-.868.47-1.61,1.1-2.225,1.9-.615.76-1.085,1.63-1.411,2.6-.325.94-.488,1.9-.488,2.88Z"/><path d="M791.903,478.978c0-1.519.434-2.767,1.302-3.744.904-.977,2.008-1.736,3.31-2.279c1.338-.579,2.767-.959,4.286-1.139c1.52-.218,2.894-.326,4.124-.326c2.352,0,4.323.47,5.915,1.411c1.627.904,2.93,2.116,3.906,3.635c1.013,1.519,1.737,3.274,2.171,5.263.434,1.99.651,4.016.651,6.078c0,1.374-.145,3.002-.434,4.883-.29,1.845-.724,3.762-1.302,5.752-.579,1.953-1.303,3.906-2.171,5.86-.832,1.917-1.808,3.653-2.93,5.209-1.121,1.519-2.387,2.749-3.798,3.69-1.375.94-2.894,1.41-4.558,1.41-.326,0-.723-.434-1.194-1.302-.434-.904-.94-2.098-1.519-3.581-.543-1.483-1.121-3.183-1.736-5.101-.579-1.953-1.158-3.961-1.737-6.022-.578-2.099-1.121-4.197-1.628-6.295-.506-2.098-.976-4.033-1.41-5.806-.398-1.772-.706-3.328-.923-4.666s-.325-2.315-.325-2.93Zm4.503,3.093c0,1.157.073,2.478.217,3.961.181,1.483.434,3.02.76,4.612.362,1.592.796,3.201,1.302,4.829.543,1.592,1.158,3.093,1.845,4.504s1.465,2.695,2.333,3.852c.869,1.122,1.845,2.008,2.93,2.659c1.23-1.736,2.297-3.292,3.202-4.666.904-1.375,1.646-2.75,2.224-4.124.579-1.375.995-2.84,1.248-4.395.29-1.556.435-3.364.435-5.426c0-1.483-.091-2.93-.272-4.341s-.579-2.659-1.193-3.744c-.579-1.122-1.411-2.008-2.496-2.659-1.086-.687-2.515-1.031-4.287-1.031-1.447,0-2.858.235-4.232.706-1.339.434-2.641,1.012-3.907,1.736c0,.108-.018.325-.054.651c0,.326,0,.687,0,1.085c0,.362-.018.724-.055,1.085c0,.326,0,.561,0,.706Zm23.278,18.611c0-1.953.235-3.907.706-5.86.47-1.953,1.211-3.708,2.224-5.263c1.049-1.556,2.388-2.822,4.015-3.799c1.664-.976,3.672-1.465,6.023-1.465c1.339,0,2.514.254,3.527.76c1.013.47,1.863,1.103,2.551,1.899.687.796,1.193,1.737,1.519,2.822.362,1.049.543,2.152.543,3.31c0,1.845-.435,3.635-1.303,5.371-.832,1.737-1.971,3.274-3.418,4.613-1.411,1.302-3.039,2.297-4.884,2.984-1.844.651-3.726.796-5.643.434.036,1.049.38,1.899,1.031,2.55.688.615,1.501,1.086,2.442,1.411.94.326,1.917.543,2.93.651c1.013.073,1.917.109,2.713.109.832,0,1.61-.073,2.333-.217.724-.145,1.447-.308,2.171-.489.723-.181,1.447-.343,2.17-.488.76-.145,1.556-.217,2.388-.217.325,0,.651.018.976.054.326.036.633.127.923.272.289.108.524.307.705.596.181.254.271.579.271.977c0,.687-.253,1.266-.759,1.736-.507.434-1.158.814-1.954,1.14-.759.325-1.609.579-2.55.76-.94.144-1.863.271-2.767.379-.868.073-1.682.109-2.442.109-.723.036-1.266.054-1.628.054-2.315,0-4.395-.362-6.24-1.085-1.845-.76-3.4-1.791-4.666-3.093-1.266-1.338-2.243-2.93-2.93-4.775-.651-1.881-.977-3.961-.977-6.24Zm5.752-3.527c0,1.266.163,2.189.488,2.768.362.578,1.212.868,2.55.868.941,0,1.863-.163,2.768-.489.904-.361,1.718-.85,2.441-1.465.76-.615,1.357-1.338,1.791-2.17s.651-1.736.651-2.713c0-.543-.054-1.103-.163-1.682-.072-.579-.253-1.104-.542-1.574-.29-.506-.67-.904-1.14-1.194-.434-.325-1.013-.488-1.736-.488-1.085,0-2.08.253-2.984.76-.869.47-1.61,1.103-2.225,1.899-.615.76-1.085,1.628-1.411,2.604-.325.941-.488,1.9-.488,2.876Zm46.61,23.658c-.76-1.411-1.61-3.165-2.551-5.263-.904-2.135-1.845-4.341-2.821-6.62-.977-2.315-2.008-4.576-3.093-6.783-1.049-2.206-2.116-4.124-3.201-5.751-.435-.326-1.031-.525-1.791-.597-.76-.073-1.555-.091-2.387-.055-.832,0-1.664-.018-2.496-.054-.796-.072-1.502-.271-2.117-.597-.578-.325-1.013-.832-1.302-1.519s-.344-1.682-.163-2.984h9.116c.181-2.026.488-4.034.923-6.023.434-1.99,1.012-3.889,1.736-5.698.76-1.808,1.664-3.49,2.713-5.046c1.049-1.555,2.315-2.894,3.798-4.015s3.183-2.008,5.101-2.659c1.953-.651,4.16-.977,6.619-.977.869,0,1.737.217,2.605.652.868.397,1.646.94,2.333,1.627.687.688,1.23,1.465,1.628,2.334.434.868.651,1.736.651,2.604-.687,0-1.302-.127-1.845-.38-.542-.289-1.067-.597-1.573-.922-.507-.362-1.049-.687-1.628-.977-.579-.325-1.23-.488-1.954-.488-2.17,0-4.196.434-6.077,1.302-1.845.868-3.472,2.026-4.883,3.473-1.375,1.447-2.46,3.129-3.256,5.046s-1.194,3.943-1.194,6.077c0,.145,0,.416,0,.814.037.362.055.76.055,1.194s0,.85,0,1.248c.036.398.054.669.054.814c1.338.434,2.84.759,4.504.976s3.328.362,4.992.434c1.7.037,3.328.019,4.883-.054c1.592-.072,3.002-.163,4.232-.271.109.108.308.307.597.597.29.289.452.506.489.651c0,.108.018.181.054.217.072.217.108.326.108.326c0,.759-.398,1.356-1.193,1.79-.796.434-1.809.76-3.039.977-1.23.181-2.604.307-4.124.38-1.483.072-2.93.144-4.341.217-1.374.036-2.622.108-3.744.217-1.085.072-1.844.235-2.279.488.471,2.17,1.303,4.269,2.496,6.294c1.23,2.026,2.478,4.052,3.744,6.077c1.267,2.026,2.388,4.07,3.365,6.132.976,2.062,1.465,4.178,1.465,6.348-.145,0-.489,0-1.031,0-.507.037-1.049.018-1.628-.054s-1.14-.235-1.682-.488c-.507-.217-.796-.561-.868-1.031Zm18.502-25.394c0-.217,0-.561,0-1.031.037-.506.055-1.031.055-1.574.036-.542.054-1.067.054-1.573.036-.507.054-.868.054-1.085.398-.579.905-1.049,1.52-1.411.651-.362,1.302-.651,1.953-.868.108,1.953.416,4.033.922,6.24.507,2.206,1.049,4.431,1.628,6.674.579,2.206,1.085,4.395,1.519,6.565.471,2.171.706,4.196.706,6.077c0,1.628-.832,2.442-2.496,2.442-1.013,0-1.863-.416-2.55-1.248-.688-.832-1.248-1.881-1.682-3.147-.398-1.302-.724-2.731-.977-4.287-.253-1.591-.434-3.147-.543-4.666-.072-1.519-.126-2.912-.163-4.178c0-1.266,0-2.243,0-2.93Zm.76-20.348c.687.29,1.266.76,1.736,1.411.471.651.67,1.248.597,1.791-.036.506-.434.868-1.193,1.085-.76.181-2.026-.036-3.799-.651c0-.977.181-1.827.543-2.551.398-.723,1.103-1.085,2.116-1.085Zm9.767,22.41c0-.941.235-1.61.705-2.008.471-.434,1.23-.651,2.279-.651h.543c.108.579.235,1.248.38,2.008.144.759.362,1.537.651,2.333s.633,1.537,1.031,2.225c.398.651.886,1.175,1.465,1.573.036-1.266.344-2.478.922-3.635.615-1.194,1.357-2.243,2.225-3.147.904-.941,1.881-1.719,2.93-2.334c1.085-.651,2.152-1.085,3.201-1.302h1.194c1.737,0,3.22.398,4.45,1.194c1.229.759,2.242,1.772,3.038,3.038.832,1.23,1.465,2.641,1.899,4.233.434,1.591.76,3.219.977,4.883.253,1.628.398,3.22.434,4.775.072,1.519.109,2.822.109,3.907h-3.961c-.218-2.171-.489-4.251-.814-6.24-.109-.796-.254-1.628-.434-2.496-.181-.904-.38-1.736-.597-2.496-.217-.796-.452-1.519-.706-2.17-.253-.688-.542-1.267-.868-1.737-.145-.145-.344-.343-.597-.597-.217-.253-.452-.506-.705-.759-.253-.254-.488-.471-.706-.651-.217-.181-.343-.272-.379-.272-1.086-.289-2.026-.072-2.822.651-.796.688-1.501,1.628-2.116,2.822s-1.121,2.55-1.519,4.069c-.362,1.52-.67,2.985-.923,4.396-.253,1.374-.434,2.586-.542,3.635-.109,1.013-.181,1.628-.217,1.845-.905.651-1.755.85-2.551.597-.796-.29-1.555-.868-2.279-1.737-.687-.868-1.32-1.953-1.899-3.255-.542-1.302-1.049-2.677-1.519-4.124-.47-1.483-.904-2.966-1.302-4.449-.362-1.484-.688-2.858-.977-4.124Zm31.417,3.201c0-1.953.235-3.907.705-5.86.471-1.953,1.212-3.708,2.225-5.263c1.049-1.556,2.387-2.822,4.015-3.799c1.664-.976,3.672-1.465,6.023-1.465c1.339,0,2.514.254,3.527.76c1.013.47,1.863,1.103,2.55,1.899.688.796,1.194,1.737,1.52,2.822.361,1.049.542,2.152.542,3.31c0,1.845-.434,3.635-1.302,5.371-.832,1.737-1.971,3.274-3.418,4.613-1.411,1.302-3.039,2.297-4.884,2.984-1.845.651-3.726.796-5.643.434.036,1.049.38,1.899,1.031,2.55.687.615,1.501,1.086,2.442,1.411.94.326,1.917.543,2.93.651c1.013.073,1.917.109,2.713.109.832,0,1.61-.073,2.333-.217.723-.145,1.447-.308,2.17-.489.724-.181,1.447-.343,2.171-.488.76-.145,1.555-.217,2.387-.217.326,0,.651.018.977.054s.633.127.922.272c.29.108.525.307.706.596.181.254.271.579.271.977c0,.687-.253,1.266-.76,1.736-.506.434-1.157.814-1.953,1.14-.76.325-1.61.579-2.55.76-.941.144-1.863.271-2.767.379-.869.073-1.683.109-2.442.109-.724.036-1.266.054-1.628.054-2.315,0-4.395-.362-6.24-1.085-1.845-.76-3.4-1.791-4.666-3.093-1.266-1.338-2.243-2.93-2.93-4.775-.652-1.881-.977-3.961-.977-6.24Zm5.752-3.527c0,1.266.162,2.189.488,2.768.362.578,1.212.868,2.55.868.941,0,1.863-.163,2.767-.489.905-.361,1.719-.85,2.442-1.465.76-.615,1.357-1.338,1.791-2.17s.651-1.736.651-2.713c0-.543-.054-1.103-.163-1.682-.072-.579-.253-1.104-.543-1.574-.289-.506-.669-.904-1.139-1.194-.434-.325-1.013-.488-1.736-.488-1.086,0-2.08.253-2.985.76-.868.47-1.609,1.103-2.224,1.899-.615.76-1.086,1.628-1.411,2.604-.326.941-.488,1.9-.488,2.876Z"/><path d="M1049.83,1036.17c0-1.92-.24-4-.71-6.24s-.98-4.54-1.52-6.89-1.07-4.69-1.57-7c-.51-2.35-.78-4.56-.82-6.62h-12.1c0-.29,0-.71,0-1.25s.06-1.09.17-1.63c.1-.58.27-1.08.48-1.52.22-.47.55-.76.98-.87h29.84c-.03,1.16-.27,2.05-.7,2.66-.43.62-1.01,1.09-1.74,1.41-.68.33-1.46.55-2.33.65-.87.08-1.74.17-2.6.28-.87.1-1.72.25-2.55.43-.84.14-1.56.45-2.18.92-.57.47-1.03,1.12-1.35,1.96-.29.79-.36,1.88-.22,3.25c0,.76.06,1.77.16,3.04.11,1.23.29,2.57.55,4.02.25,1.44.58,2.91.97,4.39.4,1.45.89,2.79,1.47,4.02.61,1.19,1.3,2.17,2.06,2.93.8.72,1.72,1.08,2.77,1.08.72.07,1.64.09,2.76.06c1.16-.08,2.32-.13,3.48-.17c1.15-.03,2.24-.02,3.25.06c1.05.07,1.81.29,2.28.65s.58.9.33,1.63c-.26.68-1.05,1.62-2.39,2.82-2.32.87-4.67,1.46-7.05,1.79-2.36.29-4.72.45-7.11.49-2.39,0-4.78-.04-7.16-.11-2.39-.11-4.76-.17-7.11-.17-1.34-1.62-2.14-2.87-2.39-3.74s-.16-1.46.27-1.79c.47-.36,1.2-.54,2.17-.54c1.01-.04,2.1,0,3.26.11c1.15.07,2.31.14,3.47.21c1.16.04,2.12-.07,2.88-.32Zm24.3,1.14c0-2.1.53-3.96,1.58-5.59s2.35-3.04,3.9-4.23c1.56-1.23,3.24-2.26,5.05-3.1c1.81-.86,3.49-1.57,5.05-2.11c1.55-.58,2.86-1.03,3.9-1.36c1.05-.36,1.58-.65,1.58-.87c0-1.26-.07-2.49-.22-3.69-.11-1.23-.23-2.46-.38-3.69-.14-1.23-.29-2.44-.43-3.63-.11-1.23-.17-2.44-.17-3.64v-3.52c1.49-.55,2.54-.49,3.15.16.65.65.76,1.77.33,3.36.14.8.34,2.05.59,3.75.26,1.7.53,3.61.82,5.75.32,2.13.65,4.37.97,6.73.37,2.35.69,4.61.98,6.78.33,2.13.6,4.05.81,5.75.22,1.66.38,2.91.49,3.74.04.18.08.55.11,1.09.04.51.06,1.07.06,1.68.03.58.05,1.12.05,1.63.04.51.05.87.05,1.08-1.37,0-2.31-.05-2.82-.16-.47-.11-.77-.32-.92-.65-.11-.33-.16-.8-.16-1.41c0-.62-.18-1.47-.55-2.55-1.33,1.05-2.6,1.92-3.79,2.6-1.2.69-2.39,1.25-3.58,1.69-1.2.39-2.41.67-3.64.81-1.19.18-2.48.27-3.85.27-1.16,0-2.28-.09-3.37-.27-1.05-.22-1.99-.58-2.82-1.09-.83-.5-1.5-1.19-2.01-2.06-.5-.87-.76-1.95-.76-3.25Zm4.73-1.14c0,.58.12,1.05.38,1.41.25.36.57.67.97.92s.82.44,1.25.54c.47.08.92.11,1.36.11c1.26,0,2.62-.23,4.07-.7c1.48-.51,2.84-1.2,4.07-2.07c1.26-.9,2.29-1.97,3.09-3.2.83-1.23,1.25-2.56,1.25-4.01c0-1.12-.2-1.9-.6-2.34-.4-.43-1.16-.65-2.28-.65-1.16,0-2.51.28-4.07.82-1.52.54-3,1.26-4.45,2.17-1.41.9-2.6,1.97-3.58,3.2-.98,1.19-1.46,2.46-1.46,3.8Zm26.75-7.54c0-1.96.23-3.91.7-5.86.47-1.96,1.21-3.71,2.23-5.27c1.04-1.55,2.38-2.82,4.01-3.8c1.67-.97,3.67-1.46,6.02-1.46c1.34,0,2.52.25,3.53.76c1.01.47,1.86,1.1,2.55,1.9.69.79,1.19,1.73,1.52,2.82.36,1.05.54,2.15.54,3.31c0,1.84-.43,3.63-1.3,5.37-.83,1.74-1.97,3.27-3.42,4.61-1.41,1.31-3.04,2.3-4.88,2.99-1.85.65-3.73.79-5.64.43.03,1.05.38,1.9,1.03,2.55.68.62,1.5,1.09,2.44,1.41.94.33,1.92.55,2.93.65c1.01.08,1.92.11,2.71.11.83,0,1.61-.07,2.33-.21.73-.15,1.45-.31,2.18-.49.72-.18,1.44-.35,2.17-.49.76-.15,1.55-.22,2.38-.22.33,0,.65.02.98.06.33.03.63.12.92.27.29.11.53.3.71.59.18.26.27.58.27.98c0,.69-.25,1.27-.76,1.74-.51.43-1.16.81-1.95,1.14-.76.32-1.61.58-2.55.76-.94.14-1.87.27-2.77.38-.87.07-1.68.1-2.44.1-.73.04-1.27.06-1.63.06-2.32,0-4.4-.36-6.24-1.09-1.85-.76-3.4-1.79-4.67-3.09-1.26-1.34-2.24-2.93-2.93-4.77-.65-1.89-.97-3.97-.97-6.24Zm5.75-3.53c0,1.26.16,2.19.49,2.77.36.57,1.21.86,2.55.86.94,0,1.86-.16,2.76-.48.91-.37,1.72-.85,2.44-1.47.76-.61,1.36-1.34,1.8-2.17.43-.83.65-1.74.65-2.71c0-.55-.06-1.11-.17-1.68-.07-.58-.25-1.11-.54-1.58-.29-.5-.67-.9-1.14-1.19-.43-.33-1.01-.49-1.73-.49-1.09,0-2.08.25-2.99.76-.87.47-1.61,1.1-2.22,1.9-.62.76-1.09,1.63-1.41,2.6-.33.94-.49,1.9-.49,2.88Zm47.86,11.61c-1.38.94-2.57,1.79-3.59,2.55-.97.72-1.93,1.34-2.87,1.85-.94.5-1.96.88-3.04,1.13-1.05.26-2.35.38-3.91.38-3.36,0-5.86-.88-7.49-2.65-1.62-1.81-2.44-4.49-2.44-8.03c0-1.38.18-2.81.55-4.29.36-1.48.88-2.95,1.57-4.4.72-1.48,1.57-2.87,2.55-4.17.98-1.34,2.08-2.52,3.31-3.53s2.53-1.81,3.91-2.39c1.41-.61,2.89-.92,4.45-.92c2.6.25,4.64.9,6.13,1.95c1.48,1.02,2.6,2.34,3.36,3.96.76,1.59,1.29,3.39,1.57,5.38.29,1.95.51,3.97.66,6.07.18,2.1.39,4.2.65,6.3.25,2.09.77,4.03,1.57,5.8-.47,1.2-.92,2.03-1.36,2.5-.39.5-.85.6-1.35.27-.51-.33-1.11-1.12-1.79-2.39-.65-1.26-1.47-3.05-2.44-5.37Zm-18.72-4.67c0,2.07.38,3.59,1.13,4.56.8.94,2.19,1.41,4.18,1.41c1.49,0,2.9-.25,4.24-.76c1.37-.54,2.56-1.26,3.58-2.17c1.01-.94,1.82-2.06,2.44-3.36.61-1.3.92-2.75.92-4.34c0-.65.02-1.56.05-2.72.04-1.19-.03-2.36-.21-3.52s-.53-2.15-1.03-2.99c-.51-.86-1.27-1.3-2.28-1.3-1.88,0-3.62.49-5.21,1.47-1.59.94-2.97,2.15-4.12,3.63-1.16,1.48-2.07,3.13-2.72,4.94-.65,1.77-.97,3.49-.97,5.15Zm27.89-15.68c0-.11.01-.2.05-.27c0-.07.02-.16.05-.27.15-.18.37-.42.65-.71.29-.28.48-.43.55-.43h10.9c0-.4-.05-1.03-.16-1.9s-.22-1.83-.32-2.87c-.08-1.05-.09-2.14-.06-3.26.04-1.16.18-2.19.44-3.09.28-.94.72-1.7,1.3-2.28.61-.62,1.46-.92,2.55-.92c0,3.65.25,6.58.76,8.79.5,2.2,1.17,3.9,2.01,5.1.86,1.19,1.84,1.97,2.93,2.33c1.08.36,2.18.52,3.31.49c1.15-.07,2.27-.26,3.36-.54c1.08-.29,2.04-.49,2.88-.6.86-.11,1.55-.02,2.06.27.5.25.76.89.76,1.9c0,.76-.18,1.3-.55,1.63-.32.32-.97.58-1.95.76-.29.03-.78.1-1.46.21-.66.08-1.4.15-2.23.22s-1.72.16-2.66.27c-.94.07-1.82.15-2.66.22-.83.07-1.59.13-2.28.16-.68,0-1.19,0-1.51,0c0,.18-.02.49-.06.92-.04.44-.05.73-.05.87c0,1.59.25,3.15.76,4.67.5,1.48,1.05,2.96,1.62,4.45.62,1.48,1.18,2.96,1.69,4.45.5,1.48.76,3.02.76,4.61c0,.29-.04.6-.11.92-.04.29-.15.56-.33.82-.14.21-.38.38-.7.48-.29.15-.71.13-1.25-.05-1.38-.36-2.41-1.14-3.09-2.33-.66-1.2-1.14-2.61-1.47-4.24-.33-1.66-.54-3.41-.65-5.26-.11-1.84-.29-3.56-.54-5.15-.22-1.63-.58-3.01-1.09-4.13-.5-1.15-1.32-1.86-2.44-2.11l-10.47-2.39c-.15,0-.36-.15-.65-.44-.29-.32-.47-.56-.55-.7-.03-.07-.05-.16-.05-.27-.04-.07-.05-.18-.05-.33Zm36.08,12.27c0-1.96.23-3.91.7-5.86.47-1.96,1.22-3.71,2.23-5.27c1.05-1.55,2.39-2.82,4.01-3.8c1.67-.97,3.68-1.46,6.03-1.46c1.34,0,2.51.25,3.52.76c1.02.47,1.87,1.1,2.55,1.9.69.79,1.2,1.73,1.52,2.82.37,1.05.55,2.15.55,3.31c0,1.84-.44,3.63-1.31,5.37-.83,1.74-1.97,3.27-3.41,4.61-1.42,1.31-3.04,2.3-4.89,2.99-1.84.65-3.72.79-5.64.43.03,1.05.38,1.9,1.03,2.55.69.62,1.5,1.09,2.44,1.41.94.33,1.92.55,2.93.65c1.01.08,1.92.11,2.71.11.84,0,1.61-.07,2.34-.21.72-.15,1.44-.31,2.17-.49.72-.18,1.45-.35,2.17-.49.76-.15,1.55-.22,2.39-.22.32,0,.65.02.97.06.33.03.64.12.93.27.28.11.52.3.7.59.18.26.27.58.27.98c0,.69-.25,1.27-.76,1.74-.5.43-1.16.81-1.95,1.14-.76.32-1.61.58-2.55.76-.94.14-1.86.27-2.77.38-.87.07-1.68.1-2.44.1-.72.04-1.27.06-1.63.06-2.31,0-4.39-.36-6.24-1.09-1.84-.76-3.4-1.79-4.66-3.09-1.27-1.34-2.25-2.93-2.93-4.77-.66-1.89-.98-3.97-.98-6.24Zm5.75-3.53c0,1.26.16,2.19.49,2.77.36.57,1.21.86,2.55.86.94,0,1.86-.16,2.77-.48.9-.37,1.71-.85,2.44-1.47.76-.61,1.35-1.34,1.79-2.17.43-.83.65-1.74.65-2.71c0-.55-.05-1.11-.16-1.68-.08-.58-.26-1.11-.55-1.58-.29-.5-.67-.9-1.14-1.19-.43-.33-1.01-.49-1.73-.49-1.09,0-2.08.25-2.99.76-.86.47-1.61,1.1-2.22,1.9-.62.76-1.09,1.63-1.41,2.6-.33.94-.49,1.9-.49,2.88Z"/><path d="M1235.2,472.901c0-1.122.2-2.044.6-2.768.43-.723,1.01-1.302,1.73-1.736.73-.47,1.52-.814,2.39-1.031.9-.217,1.83-.362,2.77-.434.97-.108,1.91-.145,2.82-.108.9,0,1.73,0,2.49,0c1.49,0,2.97.144,4.45.434c1.49.289,2.79.795,3.91,1.519c1.16.723,2.1,1.7,2.82,2.93.73,1.194,1.09,2.695,1.09,4.504c0,1.591-.33,3.183-.98,4.775-.61,1.555-1.43,3.056-2.44,4.503-.98,1.411-2.1,2.713-3.37,3.907-1.26,1.158-2.53,2.152-3.79,2.984-1.23.832-2.43,1.483-3.58,1.954-1.13.47-2.07.651-2.83.542-.43,1.411-.7,2.93-.81,4.558-.07,1.592-.09,3.165-.05,4.721.03,1.519.09,2.984.16,4.395.07,1.375,0,2.568-.22,3.581-.18.977-.54,1.718-1.08,2.225-.55.47-1.38.615-2.5.434-.33-2.568-.58-5.173-.76-7.814-.14-2.64-.27-5.263-.38-7.867-.11-2.605-.22-5.137-.32-7.597-.08-2.496-.2-4.865-.38-7.108-.15-2.243-.37-4.341-.66-6.294-.29-1.954-.65-3.69-1.08-5.209Zm13.4-1.411c-.54,0-1.21.018-2.01.054-.79.036-1.57.163-2.33.38-.72.181-1.34.525-1.84,1.031-.51.47-.76,1.158-.76,2.062v14.216c1.48,0,3.05-.398,4.72-1.194c1.66-.795,3.18-1.808,4.55-3.038c1.38-1.23,2.52-2.623,3.42-4.178.91-1.556,1.36-3.093,1.36-4.612c0-1.122-.22-1.99-.65-2.605-.4-.615-.94-1.085-1.63-1.411-.65-.325-1.39-.524-2.22-.597-.84-.072-1.7-.108-2.61-.108Zm13.89,21.487c0-.325.02-.651.06-.977.03-.361.1-.669.21-.922.11-.289.27-.524.49-.705.25-.181.6-.272,1.03-.272.36,0,.76.29,1.2.869.47.542.94,1.248,1.41,2.116.47.832.92,1.754,1.35,2.767.47,1.013.87,1.953,1.2,2.822.36.832.65,1.555.87,2.17.21.615.34.94.38.977.47-1.266.99-2.641,1.57-4.124s1.28-2.858,2.11-4.124c.87-1.302,1.89-2.387,3.04-3.256c1.2-.868,2.64-1.302,4.34-1.302.87,0,1.69.145,2.45.434.79.253,1.48.651,2.06,1.194.61.506,1.1,1.121,1.46,1.845.36.723.55,1.555.55,2.496c0,.796-.33,1.356-.98,1.682-.62.325-1.32.488-2.12.488h-.54l-2.33-2.333c-.08,0-.13-.018-.17-.054-.07,0-.14,0-.21,0-.04-.036-.09-.055-.17-.055-1.26,0-2.26.362-2.98,1.086-.69.687-1.21,1.555-1.57,2.604-.37,1.013-.6,2.098-.71,3.256-.07,1.121-.11,2.152-.11,3.093c0,.723.07,1.465.22,2.224.14.724.31,1.447.49,2.171.18.687.34,1.411.49,2.17.14.724.21,1.483.21,2.279c0,1.519-.81,2.279-2.44,2.279-.9,0-1.84-.47-2.82-1.411-.98-.976-1.95-2.206-2.93-3.689-.94-1.483-1.84-3.111-2.71-4.884-.87-1.809-1.63-3.563-2.28-5.263s-1.18-3.238-1.58-4.612c-.36-1.375-.54-2.388-.54-3.039Zm27.73,11.775c0-2.243.52-4.323,1.57-6.24c1.05-1.954,2.43-3.618,4.13-4.992c1.73-1.411,3.67-2.514,5.8-3.31c2.17-.796,4.36-1.194,6.57-1.194c1.23,0,2.31.398,3.25,1.194.98.796,1.79,1.772,2.45,2.93.65,1.121,1.13,2.315,1.46,3.581.36,1.266.54,2.37.54,3.31c0,2.026-.49,3.997-1.46,5.914-.98,1.881-2.24,3.564-3.8,5.047-1.56,1.447-3.31,2.622-5.26,3.527-1.96.904-3.91,1.356-5.86,1.356-1.74,0-3.21-.289-4.4-.868-1.19-.615-2.15-1.411-2.87-2.388-.73-1.012-1.27-2.188-1.63-3.526-.33-1.375-.49-2.822-.49-4.341Zm4.61.542c0,.941.07,1.773.22,2.496.18.688.47,1.284.87,1.791.43.506.99.904,1.68,1.194.69.253,1.54.379,2.55.379c1.34,0,2.68-.361,4.01-1.085c1.34-.759,2.54-1.7,3.59-2.821c1.08-1.158,1.95-2.424,2.6-3.799.65-1.374.98-2.713.98-4.015c0-.579-.06-1.212-.17-1.899-.1-.687-.29-1.32-.54-1.899s-.61-1.067-1.08-1.465-1.07-.597-1.79-.597c-.66,0-1.43.217-2.34.651-.87.434-1.79.995-2.77,1.682-.94.688-1.88,1.465-2.82,2.333-.9.869-1.73,1.737-2.49,2.605s-1.38,1.7-1.85,2.496c-.43.796-.65,1.447-.65,1.953Zm22.09-16.875c0-.108.01-.199.05-.271c0-.072.02-.163.05-.271.15-.181.37-.416.65-.706.29-.289.48-.434.55-.434h10.9c0-.398-.05-1.031-.16-1.899s-.22-1.827-.32-2.876c-.08-1.049-.09-2.134-.06-3.255.04-1.158.18-2.189.44-3.093.28-.941.72-1.7,1.3-2.279.61-.615,1.46-.923,2.55-.923c0,3.654.25,6.584.76,8.791.5,2.206,1.17,3.906,2.01,5.1.86,1.194,1.84,1.972,2.93,2.333c1.08.362,2.18.525,3.31.489c1.15-.073,2.27-.254,3.36-.543c1.08-.289,2.04-.488,2.88-.597.86-.108,1.55-.018,2.06.271.5.254.76.887.76,1.9c0,.759-.18,1.302-.55,1.627-.32.326-.97.579-1.95.76-.29.036-.78.109-1.46.217-.66.072-1.4.145-2.23.217-.83.073-1.72.163-2.66.271-.94.073-1.82.145-2.66.218-.83.072-1.59.126-2.28.162-.68,0-1.19,0-1.51,0c0,.181-.02.489-.06.923s-.05.723-.05.868c0,1.592.25,3.147.76,4.666.5,1.483,1.05,2.967,1.62,4.45.62,1.483,1.18,2.966,1.69,4.449.5,1.483.76,3.021.76,4.612c0,.29-.04.597-.11.923-.04.289-.15.56-.33.814-.14.217-.38.379-.7.488-.29.145-.71.126-1.25-.054-1.38-.362-2.41-1.14-3.09-2.334-.66-1.193-1.14-2.604-1.47-4.232-.33-1.664-.54-3.418-.65-5.263s-.29-3.563-.54-5.155c-.22-1.628-.58-3.002-1.09-4.124-.5-1.157-1.32-1.863-2.44-2.116l-10.47-2.387c-.15,0-.36-.145-.65-.434-.29-.326-.47-.561-.55-.706-.03-.072-.05-.163-.05-.271-.04-.073-.05-.181-.05-.326ZM1353,504.752c0-2.243.52-4.323,1.57-6.24c1.05-1.954,2.43-3.618,4.13-4.992c1.73-1.411,3.67-2.514,5.8-3.31c2.17-.796,4.36-1.194,6.57-1.194c1.23,0,2.31.398,3.25,1.194.98.796,1.79,1.772,2.44,2.93.66,1.121,1.14,2.315,1.47,3.581.36,1.266.54,2.37.54,3.31c0,2.026-.49,3.997-1.46,5.914-.98,1.881-2.25,3.564-3.8,5.047-1.56,1.447-3.31,2.622-5.26,3.527-1.96.904-3.91,1.356-5.86,1.356-1.74,0-3.21-.289-4.4-.868-1.19-.615-2.15-1.411-2.88-2.388-.72-1.012-1.26-2.188-1.62-3.526-.33-1.375-.49-2.822-.49-4.341Zm4.61.542c0,.941.07,1.773.22,2.496.18.688.47,1.284.87,1.791.43.506.99.904,1.68,1.194.69.253,1.54.379,2.55.379c1.34,0,2.68-.361,4.01-1.085c1.34-.759,2.54-1.7,3.58-2.821c1.09-1.158,1.96-2.424,2.61-3.799.65-1.374.98-2.713.98-4.015c0-.579-.06-1.212-.17-1.899s-.29-1.32-.54-1.899-.61-1.067-1.08-1.465-1.07-.597-1.8-.597c-.65,0-1.42.217-2.33.651-.87.434-1.79.995-2.77,1.682-.94.688-1.88,1.465-2.82,2.333-.9.869-1.73,1.737-2.49,2.605s-1.38,1.7-1.85,2.496c-.43.796-.65,1.447-.65,1.953Zm22.08-16.875c0-.108.02-.199.06-.271c0-.072.02-.163.05-.271.15-.181.37-.416.65-.706.29-.289.47-.434.55-.434h10.9c0-.398-.05-1.031-.16-1.899s-.22-1.827-.32-2.876c-.08-1.049-.1-2.134-.06-3.255.04-1.158.18-2.189.43-3.093.29-.941.73-1.7,1.31-2.279.61-.615,1.46-.923,2.55-.923c0,3.654.25,6.584.76,8.791.5,2.206,1.17,3.906,2,5.1.87,1.194,1.85,1.972,2.93,2.333c1.09.362,2.19.525,3.31.489c1.16-.073,2.28-.254,3.37-.543c1.08-.289,2.04-.488,2.87-.597.87-.108,1.56-.018,2.07.271.5.254.76.887.76,1.9c0,.759-.18,1.302-.55,1.627-.32.326-.97.579-1.95.76-.29.036-.78.109-1.46.217-.66.072-1.4.145-2.23.217-.83.073-1.72.163-2.66.271-.94.073-1.83.145-2.66.218-.83.072-1.59.126-2.28.162-.68,0-1.19,0-1.52,0c0,.181-.01.489-.05.923s-.05.723-.05.868c0,1.592.25,3.147.76,4.666.5,1.483,1.04,2.967,1.62,4.45.62,1.483,1.18,2.966,1.69,4.449.5,1.483.76,3.021.76,4.612c0,.29-.04.597-.11.923-.04.289-.15.56-.33.814-.14.217-.38.379-.7.488-.29.145-.71.126-1.25-.054-1.38-.362-2.41-1.14-3.09-2.334-.66-1.193-1.14-2.604-1.47-4.232-.33-1.664-.54-3.418-.65-5.263s-.29-3.563-.54-5.155c-.22-1.628-.58-3.002-1.09-4.124-.51-1.157-1.32-1.863-2.44-2.116L1381,490.156c-.15,0-.36-.145-.65-.434-.29-.326-.47-.561-.55-.706-.03-.072-.05-.163-.05-.271-.04-.073-.06-.181-.06-.326Zm35.17-.705c0-.326,0-.651,0-.977.03-.362.1-.687.21-.977.15-.325.33-.56.55-.705.25-.181.61-.271,1.08-.271.04,0,.07,0,.11,0c.07,0,.14,0,.22,0c.1.036.2.054.27.054.68.941,1.28,2.152,1.79,3.636.5,1.446.99,3.002,1.46,4.666.47,1.628.98,3.292,1.52,4.992.54,1.664,1.25,3.165,2.12,4.504.87,1.338,1.93,2.405,3.2,3.201s2.84,1.139,4.72,1.031c.83,0,1.38-.452,1.63-1.357.25-.904.38-2.062.38-3.472.03-1.411,0-2.967-.11-4.667-.07-1.7-.07-3.31,0-4.829.11-1.555.38-2.912.81-4.069.47-1.158,1.27-1.936,2.39-2.334.47.941.85,2.424,1.14,4.45.33,1.989.56,4.304.71,6.945.14,2.605.21,5.444.21,8.519c0,3.039-.07,6.077-.21,9.116-.15,3.002-.37,5.896-.66,8.681-.28,2.786-.61,5.228-.97,7.326s-.8,3.744-1.3,4.937c-.47,1.23-.98,1.755-1.52,1.574-.76-.724-1.36-1.664-1.79-2.822-.4-1.157-.69-2.441-.87-3.852-.15-1.411-.2-2.912-.17-4.504.04-1.555.1-3.129.17-4.72.11-1.592.21-3.148.32-4.667.15-1.519.22-2.912.22-4.178-1.3.109-2.64-.09-4.01-.597-1.34-.506-2.66-1.284-3.97-2.333-1.3-1.085-2.55-2.387-3.74-3.907-1.16-1.519-2.19-3.237-3.09-5.155-.87-1.917-1.56-3.979-2.06-6.185-.51-2.243-.76-4.594-.76-7.054Zm27.67,8.03c0-3.508.81-6.113,2.44-7.813s4.12-2.55,7.49-2.55c1.37,0,2.78.126,4.23.379c1.48.254,2.84.706,4.07,1.357c1.23.615,2.22,1.483,2.98,2.605.8,1.121,1.2,2.568,1.2,4.34c0,1.954-.44,3.799-1.3,5.535-.84,1.7-1.9,3.31-3.21,4.829-1.26,1.483-2.67,2.876-4.23,4.178-1.52,1.266-2.95,2.478-4.28,3.636-.08.144-.15.452-.22.922-.04.434-.06.724-.06.868c0,1.194.35,2.388,1.04,3.581.72,1.23,1.5,2.46,2.33,3.69.83,1.266,1.59,2.569,2.28,3.907.68,1.338,1.03,2.731,1.03,4.178c0,.868-.18,1.375-.54,1.519-.37.181-1.13.272-2.28.272-.73-.29-1.45-.977-2.17-2.062-.69-1.049-1.4-2.352-2.12-3.907-.69-1.556-1.37-3.31-2.06-5.263-.65-1.918-1.29-3.871-1.9-5.86-.58-2.026-1.14-4.016-1.68-5.969-.51-1.99-.96-3.816-1.36-5.48s-.76-3.093-1.08-4.287c-.29-1.23-.49-2.098-.6-2.605Zm4.61.489c0,.542.04,1.338.11,2.387.07,1.013.22,2.026.43,3.039.26,1.013.62,1.899,1.09,2.659.47.723,1.12,1.085,1.95,1.085c1.12,0,2.24-.38,3.37-1.14c1.15-.759,2.17-1.718,3.03-2.875.91-1.158,1.63-2.388,2.18-3.69.57-1.339.86-2.55.86-3.636c0-.904-.21-1.609-.65-2.116-.43-.542-.99-.958-1.68-1.248-.65-.325-1.36-.524-2.12-.597-.76-.108-1.48-.162-2.17-.162-2.06,0-3.65.56-4.77,1.682-1.09,1.085-1.63,2.622-1.63,4.612Zm21,4.449c0-1.953.23-3.907.7-5.86.48-1.953,1.22-3.708,2.23-5.263c1.05-1.556,2.39-2.822,4.01-3.799c1.67-.976,3.68-1.465,6.03-1.465c1.34,0,2.51.254,3.52.76c1.02.47,1.87,1.103,2.55,1.899.69.796,1.2,1.737,1.52,2.822.37,1.049.55,2.152.55,3.31c0,1.845-.44,3.635-1.31,5.371-.83,1.737-1.97,3.274-3.41,4.613-1.41,1.302-3.04,2.297-4.89,2.984-1.84.651-3.72.796-5.64.434.04,1.049.38,1.899,1.03,2.55.69.615,1.5,1.086,2.44,1.411.94.326,1.92.543,2.93.651c1.02.073,1.92.109,2.72.109.83,0,1.61-.073,2.33-.217.72-.145,1.45-.308,2.17-.489s1.45-.343,2.17-.488c.76-.145,1.55-.217,2.39-.217.32,0,.65.018.97.054.33.036.64.127.93.272.29.108.52.307.7.596.18.254.27.579.27.977c0,.687-.25,1.266-.76,1.736-.5.434-1.15.814-1.95,1.14-.76.325-1.61.579-2.55.76-.94.144-1.86.271-2.77.379-.87.073-1.68.109-2.44.109-.72.036-1.27.054-1.63.054-2.31,0-4.39-.362-6.24-1.085-1.84-.76-3.4-1.791-4.66-3.093-1.27-1.338-2.25-2.93-2.93-4.775-.65-1.881-.98-3.961-.98-6.24Zm5.75-3.527c0,1.266.16,2.189.49,2.768.36.578,1.21.868,2.55.868.94,0,1.86-.163,2.77-.489.9-.361,1.72-.85,2.44-1.465.76-.615,1.36-1.338,1.79-2.17s.65-1.736.65-2.713c0-.543-.05-1.103-.16-1.682-.07-.579-.26-1.104-.54-1.574-.29-.506-.67-.904-1.14-1.194-.44-.325-1.02-.488-1.74-.488-1.09,0-2.08.253-2.99.76-.86.47-1.6,1.103-2.22,1.899-.61.76-1.08,1.628-1.41,2.604-.33.941-.49,1.9-.49,2.876Z"/><path d="M1535.18,1011.15c-.15-.5-.43-.85-.87-1.03-.4-.18-.85-.27-1.36-.27-.47-.03-.94-.02-1.41.06-.47.07-.83.1-1.08.1-.62-.03-1.68-.1-3.2-.21s-3.17-.22-4.94-.33c-1.74-.14-3.36-.27-4.88-.38-1.52-.14-2.59-.23-3.21-.27c0-.07-.01-.25-.05-.54s-.05-.49-.05-.6c0-.51.03-.96.1-1.36.11-.39.48-.7,1.09-.92c3.4.07,6.75.06,10.04-.05c3.33-.11,6.64-.26,9.93-.44c3.33-.21,6.64-.41,9.93-.59c3.33-.18,6.67-.27,10.04-.27c0,1.37-.33,2.38-.98,3.03-.65.62-1.47,1.04-2.44,1.25-.94.22-1.99.31-3.15.27-1.16-.03-2.28-.01-3.36.06-1.05.07-1.99.29-2.83.65-.79.32-1.32.94-1.57,1.84-.04.22-.07.64-.11,1.25-.03.62-.07,1.27-.11,1.95c0,.69-.01,1.34-.05,1.96c0,.58,0,.99,0,1.25c0,2.06.25,4.1.76,6.13.54,1.99,1.12,3.98,1.74,5.97.65,1.95,1.23,3.92,1.73,5.91.54,1.95.82,3.94.82,5.97c0,1.52-.87,2.28-2.61,2.28-1.05,0-1.99-.72-2.82-2.17-.8-1.45-1.5-3.29-2.12-5.54-.58-2.24-1.06-4.68-1.46-7.32-.36-2.64-.67-5.17-.92-7.6-.22-2.42-.38-4.56-.49-6.4-.07-1.85-.11-3.06-.11-3.64Zm23.11,17.48c0-1.96.24-3.91.71-5.86.47-1.96,1.21-3.71,2.22-5.27c1.05-1.55,2.39-2.82,4.02-3.8c1.66-.97,3.67-1.46,6.02-1.46c1.34,0,2.52.25,3.53.76c1.01.47,1.86,1.1,2.55,1.9.69.79,1.19,1.73,1.52,2.82.36,1.05.54,2.15.54,3.31c0,1.84-.43,3.63-1.3,5.37-.83,1.74-1.97,3.27-3.42,4.61-1.41,1.31-3.04,2.3-4.88,2.99-1.85.65-3.73.79-5.65.43.04,1.05.38,1.9,1.04,2.55.68.62,1.5,1.09,2.44,1.41.94.33,1.91.55,2.93.65c1.01.08,1.91.11,2.71.11.83,0,1.61-.07,2.33-.21.73-.15,1.45-.31,2.17-.49.73-.18,1.45-.35,2.17-.49.76-.15,1.56-.22,2.39-.22.33,0,.65.02.98.06.32.03.63.12.92.27.29.11.53.3.71.59.18.26.27.58.27.98c0,.69-.26,1.27-.76,1.74-.51.43-1.16.81-1.96,1.14-.76.32-1.61.58-2.55.76-.94.14-1.86.27-2.76.38-.87.07-1.69.1-2.44.1-.73.04-1.27.06-1.63.06-2.32,0-4.4-.36-6.24-1.09-1.85-.76-3.4-1.79-4.67-3.09-1.26-1.34-2.24-2.93-2.93-4.77-.65-1.89-.98-3.97-.98-6.24Zm5.76-3.53c0,1.26.16,2.19.48,2.77.37.57,1.22.86,2.55.86.95,0,1.87-.16,2.77-.48.91-.37,1.72-.85,2.44-1.47.76-.61,1.36-1.34,1.79-2.17.44-.83.66-1.74.66-2.71c0-.55-.06-1.11-.17-1.68-.07-.58-.25-1.11-.54-1.58-.29-.5-.67-.9-1.14-1.19-.43-.33-1.01-.49-1.74-.49-1.08,0-2.08.25-2.98.76-.87.47-1.61,1.1-2.22,1.9-.62.76-1.09,1.63-1.42,2.6-.32.94-.48,1.9-.48,2.88Zm34.94,16.17c.58-.4,1.27-.91,2.06-1.52.83-.65,1.67-1.34,2.5-2.06.83-.73,1.61-1.49,2.33-2.28.72-.8,1.29-1.56,1.68-2.28.44-.76.65-1.47.65-2.12s-.32-1.19-.97-1.62c-1.16,0-2.43.05-3.8.16-1.38.07-2.75.11-4.12.11-1.38-.04-2.72-.17-4.02-.38-1.27-.22-2.41-.62-3.42-1.2s-1.83-1.39-2.44-2.44c-.58-1.08-.87-2.46-.87-4.12c0-1.96.36-3.71,1.09-5.27.76-1.59,1.75-2.98,2.98-4.17c1.23-1.23,2.61-2.3,4.13-3.21c1.55-.94,3.11-1.73,4.66-2.38.94.25,1.81.7,2.61,1.35.79.65,1.48,1.38,2.06,2.17-.26.8-.76,1.41-1.52,1.85-.72.43-1.57.81-2.55,1.14-.94.32-1.94.67-2.99,1.03-1.04.36-2,.85-2.87,1.46-.83.58-1.54,1.36-2.12,2.34-.58.94-.87,2.19-.87,3.74c0,1.16.29,2.01.87,2.55s1.34.92,2.28,1.14c.94.18,2.01.25,3.2.22c1.2-.07,2.41-.16,3.64-.27c1.26-.11,2.49-.17,3.69-.17c1.19-.03,2.26.11,3.2.44.94.29,1.68.78,2.22,1.46.58.69.87,1.7.87,3.04c0,.58-.2,1.32-.6,2.23-.36.9-.86,1.88-1.51,2.93-.62,1.01-1.36,2.02-2.23,3.04-.83,1.01-1.72,1.93-2.66,2.76-.9.8-1.82,1.47-2.77,2.01-.9.51-1.75.76-2.55.76-.76,0-1.26-.27-1.51-.81-.22-.55-.33-1.09-.33-1.63Zm15.14-24.91c0-.11.02-.2.05-.27c0-.07.02-.16.06-.27.14-.18.36-.42.65-.71.29-.28.47-.43.54-.43h10.91c0-.4-.06-1.03-.17-1.9-.1-.87-.21-1.83-.32-2.87-.07-1.05-.09-2.14-.06-3.26.04-1.16.19-2.19.44-3.09.29-.94.72-1.7,1.3-2.28.62-.62,1.47-.92,2.55-.92c0,3.65.25,6.58.76,8.79.51,2.2,1.18,3.9,2.01,5.1.87,1.19,1.84,1.97,2.93,2.33c1.08.36,2.19.52,3.31.49c1.16-.07,2.28-.26,3.36-.54c1.09-.29,2.05-.49,2.88-.6.87-.11,1.55-.02,2.06.27.51.25.76.89.76,1.9c0,.76-.18,1.3-.54,1.63-.33.32-.98.58-1.96.76-.29.03-.77.1-1.46.21-.65.08-1.39.15-2.23.22-.83.07-1.71.16-2.65.27-.95.07-1.83.15-2.66.22-.84.07-1.6.13-2.28.16-.69,0-1.2,0-1.52,0c0,.18-.02.49-.06.92-.03.44-.05.73-.05.87c0,1.59.25,3.15.76,4.67.51,1.48,1.05,2.96,1.63,4.45.61,1.48,1.17,2.96,1.68,4.45.51,1.48.76,3.02.76,4.61c0,.29-.04.6-.11.92-.04.29-.14.56-.33.82-.14.21-.37.38-.7.48-.29.15-.71.13-1.25-.05-1.37-.36-2.4-1.14-3.09-2.33-.65-1.2-1.14-2.61-1.47-4.24-.32-1.66-.54-3.41-.65-5.26-.11-1.84-.29-3.56-.54-5.15-.22-1.63-.58-3.01-1.09-4.13-.5-1.15-1.32-1.86-2.44-2.11l-10.47-2.39c-.14,0-.36-.15-.65-.44-.29-.32-.47-.56-.54-.7-.04-.07-.06-.16-.06-.27-.03-.07-.05-.18-.05-.33Zm38.36,7c0-.21,0-.56,0-1.03.04-.51.05-1.03.05-1.57.04-.54.06-1.07.06-1.58.04-.5.05-.86.05-1.08.4-.58.91-1.05,1.52-1.41.65-.36,1.31-.65,1.96-.87.1,1.95.41,4.03.92,6.24s1.05,4.43,1.63,6.67c.58,2.21,1.08,4.4,1.52,6.57.47,2.17.7,4.2.7,6.08c0,1.62-.83,2.44-2.49,2.44-1.02,0-1.87-.42-2.56-1.25-.68-.83-1.24-1.88-1.68-3.15-.4-1.3-.72-2.73-.97-4.28-.26-1.59-.44-3.15-.55-4.67-.07-1.52-.12-2.91-.16-4.18c0-1.26,0-2.24,0-2.93Zm.76-20.35c.69.29,1.27.76,1.74,1.42.47.65.67,1.24.59,1.79-.03.5-.43.86-1.19,1.08-.76.18-2.03-.04-3.8-.65c0-.98.18-1.83.54-2.55.4-.72,1.11-1.09,2.12-1.09Zm9.77,22.41c0-.94.23-1.61.7-2c.47-.44,1.23-.65,2.28-.65h.54c.11.57.24,1.24.38,2c.15.76.37,1.54.66,2.34.28.79.63,1.53,1.03,2.22.39.65.88,1.18,1.46,1.57.04-1.26.34-2.47.92-3.63.62-1.19,1.36-2.24,2.23-3.15.9-.94,1.88-1.72,2.93-2.33c1.08-.65,2.15-1.09,3.2-1.3h1.19c1.74,0,3.22.39,4.45,1.19c1.23.76,2.25,1.77,3.04,3.04.83,1.23,1.47,2.64,1.9,4.23s.76,3.22.98,4.88c.25,1.63.4,3.22.43,4.78.07,1.52.11,2.82.11,3.91h-3.96c-.22-2.17-.49-4.25-.82-6.24-.1-.8-.25-1.63-.43-2.5-.18-.9-.38-1.74-.6-2.5-.21-.79-.45-1.52-.7-2.17-.25-.68-.54-1.26-.87-1.73-.14-.15-.34-.35-.6-.6-.21-.25-.45-.51-.7-.76-.26-.25-.49-.47-.71-.65-.21-.18-.34-.27-.38-.27-1.08-.29-2.02-.07-2.82.65-.79.69-1.5,1.63-2.11,2.82-.62,1.19-1.13,2.55-1.52,4.07-.37,1.52-.67,2.99-.93,4.4-.25,1.37-.43,2.58-.54,3.63-.11,1.01-.18,1.63-.22,1.85-.9.65-1.75.85-2.55.59-.79-.29-1.55-.87-2.28-1.73-.68-.87-1.32-1.96-1.89-3.26-.55-1.3-1.05-2.68-1.52-4.12-.47-1.49-.91-2.97-1.31-4.45-.36-1.49-.68-2.86-.97-4.13Zm45.41,47.16c2.03,0,3.84-.38,5.43-1.14c1.59-.73,2.93-1.74,4.01-3.04c1.13-1.27,1.98-2.73,2.55-4.4.62-1.62.93-3.32.93-5.1c0-.9-.06-2.1-.17-3.58-.07-1.48-.19-3.09-.38-4.83-.18-1.73-.45-3.51-.81-5.32-.32-1.8-.74-3.5-1.25-5.1-.5-1.62-1.14-3.03-1.9-4.23-.72-1.23-1.57-2.1-2.55-2.6-.94.72-1.86,1.39-2.76,2.01-.91.57-1.85,1.06-2.83,1.46-.97.4-1.98.72-3.03.98-1.05.21-2.17.32-3.37.32-1.55,0-2.89-.14-4.01-.43-1.09-.29-2.01-.78-2.77-1.47-.72-.68-1.27-1.59-1.63-2.71s-.54-2.53-.54-4.23c0-1.2.29-2.35.87-3.47.58-1.16,1.34-2.23,2.28-3.21.97-1.01,2.06-1.93,3.25-2.76c1.23-.84,2.48-1.56,3.75-2.17c1.3-.62,2.56-1.09,3.79-1.41c1.27-.33,2.39-.49,3.37-.49.94,0,1.72.03,2.33.11.62.03,1.14.18,1.57.43.44.22.8.58,1.09,1.09.33.47.63,1.12.92,1.95.83,2.82,1.79,5.86,2.88,9.11c1.08,3.26,2.11,6.61,3.09,10.04.98,3.44,1.79,6.89,2.44,10.37.69,3.51,1.03,6.89,1.03,10.14c0,2.9-.41,5.34-1.24,7.33-.8,2.02-1.87,3.67-3.21,4.94-1.3,1.3-2.8,2.29-4.5,2.98-1.66.69-3.35,1.12-5.05,1.3-1.7.22-3.34.27-4.93.17-1.59-.11-2.97-.33-4.13-.66-1.15-.29-2.04-.63-2.66-1.03-.57-.39-.72-.74-.43-1.03.33-.25,1.16-.43,2.5-.54c1.33-.11,3.36-.04,6.07.22Zm.76-52.36c-2.67.57-4.84,1.39-6.51,2.44-1.63,1.01-2.86,2.11-3.69,3.31-.79,1.15-1.23,2.33-1.3,3.52-.07,1.16.14,2.16.65,2.99s1.23,1.46,2.17,1.9c.98.4,2.08.41,3.31.05c1.23-.4,2.53-1.23,3.91-2.49c1.41-1.27,2.82-3.15,4.23-5.65c0-.61,0-1.28,0-2.01.04-.72-.02-1.37-.16-1.95-.15-.61-.42-1.12-.82-1.52-.39-.4-.99-.59-1.79-.59Z"/><path d="M862.761,831.042c-.882-.265-1.811.235-2.076,1.116l-4.318,14.367c-.265.882.235,1.812,1.117,2.076.882.265,1.811-.234,2.076-1.116l3.838-12.771l12.771,3.838c.882.265,1.811-.235,2.076-1.117.265-.881-.235-1.811-1.117-2.076l-14.367-4.317Zm-1.948,2.385c18.608,34.596,5.647,77.726-28.949,96.334l1.579,2.936c36.217-19.48,49.786-64.631,30.306-100.849l-2.936,1.579Zm-28.949,96.334c-34.596,18.607-77.726,5.646-96.333-28.95l-2.937,1.579c19.48,36.218,64.631,49.786,100.849,30.307l-1.579-2.936Z"/><path d="M1347.19,811.963c-.88-.265-1.81.235-2.08,1.117l-4.32,14.367c-.26.882.24,1.811,1.12,2.076s1.81-.235,2.08-1.116l3.83-12.771l12.77,3.838c.89.265,1.82-.235,2.08-1.117.27-.882-.23-1.811-1.12-2.076l-14.36-4.318Zm-1.95,2.386c18.61,34.596,5.65,77.726-28.95,96.334l1.58,2.936c36.22-19.48,49.78-64.631,30.31-100.849l-2.94,1.579Zm-28.95,96.334c-34.6,18.607-77.73,5.646-96.33-28.95l-2.94,1.579c19.48,36.217,64.63,49.786,100.85,30.307l-1.58-2.936Z"/><path d="M1112.39,709.031c-.86.321-1.82-.118-2.15-.981l-5.23-14.058c-.32-.863.11-1.822.98-2.144.86-.321,1.82.118,2.14.98l4.66,12.497l12.49-4.655c.87-.321,1.82.118,2.15.98.32.863-.12,1.823-.98,2.144l-14.06,5.237Zm-2.1-2.255c16.33-35.726.61-77.929-35.11-94.263l1.38-3.032c37.4,17.1,53.86,61.281,36.76,98.681l-3.03-1.386Zm-35.11-94.263c-35.73-16.334-77.93-.614-94.264,35.112l-3.032-1.386c17.1-37.4,61.276-53.857,98.676-36.758l-1.38,3.032Z"/><path d="M1604.6,724.006c-.86.322-1.82-.117-2.14-.98l-5.24-14.058c-.32-.863.12-1.823.98-2.144.87-.322,1.83.117,2.15.98L1605,720.3l12.5-4.654c.86-.322,1.82.117,2.14.98s-.11,1.822-.98,2.144l-14.06,5.236Zm-2.09-2.255c16.33-35.725.61-77.928-35.11-94.262l1.38-3.032c37.4,17.1,53.86,61.28,36.76,98.68l-3.03-1.386Zm-35.11-94.262c-35.73-16.334-77.93-.614-94.27,35.111l-3.03-1.386c17.1-37.4,61.28-53.857,98.68-36.757l-1.38,3.032Z"/><path d="M660.172,1066.55c.656-.65,1.711-.64,2.358.01l10.534,10.68c.646.66.639,1.71-.016,2.36-.656.65-1.711.64-2.358-.02l-9.363-9.49-9.495,9.36c-.655.65-1.711.64-2.357-.01-.647-.66-.639-1.71.016-2.36l10.681-10.53Zm2.838,1.19c-.131,18.83,11.733,37.14,33.996,54.13c22.234,16.98,54.576,32.42,94.732,45.5c80.294,26.17,191.457,42.8,314.442,43.66l-.02,3.33c-123.234-.85-234.754-17.52-315.455-43.82-40.34-13.15-73.073-28.73-95.722-46.02-22.621-17.26-35.448-36.45-35.307-56.8l3.334.02Zm443.17,143.29c122.98.85,234.36-14.25,315.01-39.3c40.34-12.53,72.89-27.52,95.36-44.18c22.49-16.68,34.61-34.83,34.74-53.66l3.33.03c-.14,20.35-13.23,39.35-36.09,56.31-22.88,16.97-55.83,32.1-96.35,44.68-81.06,25.18-192.8,40.3-316.02,39.45l.02-3.33Z"/></g><g id="epve1Ymxduk33" opacity="0"><path d="M1924.14,1318.43c-12.71,13.77-12.84,46.24-12.84,46.24s-22.72,3.17-28.68,14.14c-10.23,18.84,44.42,32.27,44.42,32.27s-17.48,48.58,2.5,62.92c20.48,14.71,61.3-20.23,61.3-20.23s26.42,38.33,50.12,35.17c22.25-2.97,39.13-42.09,39.13-42.09s39.08,11.37,53.78-3.7c13.34-13.68,5.99-48.57,5.99-48.57s31.37-38.8,18.07-58.8c-11.79-17.73-53.11-12.31-53.11-12.31s-25.33-43.67-52.35-45.48c-26.03-1.74-56.82,35.13-56.82,35.13s-52.51-15.27-71.51,5.31Z" fill="#fff" stroke="#000"/></g><g id="epve1Ymxduk35" transform="translate(.000001 0.000001)" opacity="0"><path d="M2203.94,1438.89c-7.98,8.65-8.06,29.04-8.06,29.04s-14.27,1.98-18.01,8.87c-6.42,11.83,27.89,20.27,27.89,20.27s-10.97,30.5,1.57,39.51c12.86,9.23,38.5-12.71,38.5-12.71s16.58,24.07,31.47,22.08c13.97-1.86,24.57-26.43,24.57-26.43s24.53,7.15,33.76-2.32c8.38-8.59,3.77-30.5,3.77-30.5s19.69-24.36,11.34-36.92c-7.4-11.13-33.35-7.73-33.35-7.73s-15.9-27.41-32.87-28.55c-16.34-1.1-35.67,22.06-35.67,22.06s-32.98-9.59-44.91,3.33Z" fill="#fff" stroke="#000"/></g><g><path d="M2575.21,2525.01c14.81-26.33-13.21-57.49-32.41-71.2-23.26,12.64-47.38,24.88-58.1,25.95-16.45,1.65,53.48-56.15,90.51-85.26c5.39,1.93,19.04,12.63,30.51,40.03c11.76,18.87,23.54,64.03,29.14,90.48h-59.65Z" fill="#444040"/><path d="M2542.8,2453.81c19.2,13.71,47.22,44.87,32.41,71.2h59.65c-5.6-26.45-17.38-71.61-29.14-90.48m0,0c-4.09-6.57-8.18-9.95-12-8.25-18.51,8.23-88.45,51.42-109.02,53.48-16.45,1.65,53.48-56.15,90.51-85.26c5.39,1.93,19.04,12.63,30.51,40.03Z" fill="none" stroke="#000" stroke-width="0.329104"/><path d="M2703.29,2525.01c14.81-26.33-13.21-57.49-32.41-71.2-23.26,12.64-47.38,24.88-58.1,25.95-16.45,1.65,53.48-56.15,90.51-85.26c5.39,1.93,19.05,12.63,30.51,40.03c11.76,18.87,23.54,64.03,29.14,90.48h-59.65Z" fill="#444040"/><path d="M2670.88,2453.81c19.2,13.71,47.22,44.87,32.41,71.2h59.65c-5.6-26.45-17.38-71.61-29.14-90.48m0,0c-4.09-6.57-8.18-9.95-12-8.25-18.51,8.23-88.45,51.42-109.02,53.48-16.45,1.65,53.48-56.15,90.51-85.26c5.39,1.93,19.05,12.63,30.51,40.03Z" fill="none" stroke="#000" stroke-width="0.329104"/><path d="M2518.53,2632.53c19.59-15.67,40.81-69.22,48.98-94.04c0-30.36,118.52-76.4,185.13-25.46c53.29,40.74,35.27,170.44,19.59,230.19-72.81,3.27-215.69,7.84-204.72,0s4.57-26.77,0-35.26c-68.57,16.65-93.06-12.74-100.9-27.43-7.83-14.69,27.43-28.41,51.92-48Z" fill="#aeadad" stroke="#929292" stroke-width="3"/><path d="M2503.65,2709.32l-4.34-63.25c-8.96,6.06-29.39,17.74-35.08,26.6-5.69,8.85,19.5,34.82,39.42,36.65Z" fill="#444040" stroke="#000" stroke-width="0.557651"/><rect width="206.928" height="17.5221" rx="0" ry="0" transform="translate(2566.17 2742.15)" fill="#3972b5"/><path d="M2544.98,3009.18c-39.97-114.85-1.64-214.19,22.53-249.51h203.74c52.51,66.54,32.33,223.77,15.68,294.07h-198.85-91.1c-7.51-.99-21.16-11.29-15.67-44.56c5.48-33.26,44.73-13.86,63.67,0Z" fill="#aeadad" stroke="#929292" stroke-width="4"/><path d="M2560.45,2770.75c14.69,50.24,35.43,172.51-14.59,239.2-19.2-43.47-33.46-151.5,14.59-239.2Z" fill="#ebebeb" stroke="#929292" stroke-width="4"/><path d="M2582.47,3018v-113.02c12.64-26.15,29.31-10.9,36.07,0v61.72v88.17h-92.99c-6.14-12.29-13.3-41.52,7.22-60.12c20.52-18.59,41.68,7.75,49.7,23.25Z" fill="#aeadad" stroke="#929292" stroke-width="3"/><path d="M2687.17,2904.98v113.02c-8.69-15.5-31.63-41.84-53.88-23.25-22.25,18.6-14.48,47.83-7.82,60.12h100.81v-88.17" fill="none" stroke="#929292" stroke-width="3"/><path d="M2832.6,3031.98c0,17.87-14,23.83-31.27,23.83-17.28,0-18.09-5.96-18.09-23.83s.81-32.35,18.09-32.35c17.27,0,31.27,14.48,31.27,32.35Z" fill="#444040"/><path d="M2832.43,3031.98c0,8.89-3.47,14.79-9.08,18.48-5.62,3.7-13.4,5.19-22.02,5.19-8.64,0-13.07-1.49-15.38-5.14-1.17-1.83-1.8-4.22-2.15-7.28-.34-3.07-.39-6.78-.39-11.25c0-8.94.2-16.99,2.55-22.81c1.17-2.91,2.87-5.25,5.34-6.86c2.47-1.62,5.73-2.52,10.03-2.52c17.17,0,31.1,14.41,31.1,32.19Z" fill="none" stroke="#000" stroke-width="0.329104"/><path d="M2586.14,2583l-8.64,24" fill="none" stroke="#1b1818" stroke-width="10" stroke-linecap="round"/><path d="M2723.88,2879.55c-16.39-68.92,70.43-50.71,75.21-45.84c17.07,23.51,6.72,139.09-4.89,157.74-11.6,18.65-70.32,3.24-70.32-24.33s16.38-18.65,0-87.57Z" fill="#444040" stroke="#444040" stroke-width="0.557651"/><path d="M2567,2708c19.67-4.83,60.1-17.6,64.5-30" fill="none" stroke="#929292" stroke-width="3"/></g><g transform="translate(.000001 0.000001)"><path d="M2041.84,2815.01c-22.2-72.87,15.12-260.93,38.05-387.52c97.49-7.97,267.34,9.45,292.45,55.96c31.4,58.15,5.73,438.48-9.54,464.72-15.26,26.24-62.61,6.84-98.95-19.15-36.35-25.98-26.76-243.99-40.1-266.63-13.33-22.64-42.3,99.98-53.7,171.76s-100.48,71.93-128.21-19.14Z" fill="#736d6d" stroke="#6b6565" stroke-width="2.58151" stroke-linecap="round"/><path d="M2088.82,2217.39h330.43l-19.14-261.6-125.42-24.74-185.87,100.47v185.87Z" fill="#1f1c1c" stroke="#1f1c1c" stroke-width="0.430252"/><path d="M2034.11,2390.63c20.49.86,101.26-188.03,139.08-282.59c0,0-47.3-13.27-61.8,7.34l-37.15,52.76c8.89-42.48,17.05-84.55,22.52-114.05-23.4-6.76-64.12-33.23-79.1-26.71-14.99,6.51-34.42,130.74-50.64,188.06-50.81,216.15,41.47,174.1,67.09,175.19Z" fill="#ffbd3c" stroke="#ebb141" stroke-width="4.30252" stroke-linecap="round"/><path d="M2078.21,1800.25c38.55-111.18,105.12-117.03,133.59-106.06c234.06-29.04,156.83,313.87,138.97,351.09-14.28,29.77-67.47,5.95-92.28-9.68v71.64c-47.5,28.57-84.91,11.9-97.67,0l-17.86-52.28c-181.74-45.09-118.89-188.59-64.75-254.71Z" fill="#f2cea3" stroke="#fb9f85" stroke-width="0.430252"/><path d="M2075.1,1801.86c-12.4-166.94,105.69-170.09,166.29-150.8c49.69-13.55,122.4,20.43,178.55,98.74c44.92,62.65,18.72,334.74,0,462.95-11.01-31.84-111-109.5-159.62-144.35l-2.37-30.98l9.68-6.45c19.11,13.77,44.96,5.74,55.51,0c37.51-28.57,15.63-53.78,0-62.82-102.58-12.39-118.9-186.44-114.24-271.92-54.21-16.86-111.79,63.39-133.8,105.63Z" fill="#1f1c1c" stroke="#000" stroke-width="0.430252"/><path d="M2111.19,1799.4l-22.57,32.24" fill="none" stroke="#1b1818" stroke-width="10" stroke-linecap="round"/><line x1="2213.8" y1="1871.11" x2="2193.88" y2="1899.57" fill="none" stroke="#1b1818" stroke-width="10" stroke-linecap="round"/><path d="M2140.23,1837.9l-16.35,26.03c-16.27-14.41-41-31.1-9.68,17.43" fill="none" stroke="#f87a58" stroke-width="5" stroke-linecap="round"/><path d="M2075.91,1906.74c4.66,6.89,20.35,21.13,45.82,23.02" fill="none" stroke="#f87a58" stroke-width="5" stroke-linecap="round"/><path d="M2314.7,1990.86c7.03,8.68,12.69,26.03-20.87,26.03" fill="none" stroke="#f87a58" stroke-width="5" stroke-linecap="round"/><path d="M2044.38,2463.65c12.48-89.49,78.88-274.5,117.03-360.76l139.4-6.89c38.08,117.03,110.92,353.54,89.93,402.07-26.25,60.67-197.7,40.02-277.51,30.34-63.85-7.75-75.23-46.9-68.85-64.76Z" fill="#ffbd3c"/><path d="M2016.54,2012.96c-6.87-18.82-15.28-58.41,6-66.23c17.08-6.27,18.32,12.74,15.91,29.13c3.59-14.52,9.97-28.85,17.91-15.32c6.87,11.7,6.24,23.67,3.77,32.24c4.63-8.79,11.48-16.48,18.03-8.65c8.8,10.51,4.23,27.38.69,34.87c5.4-11.2,16.78-29.13,20.43-13.96c4.62,19.17,9.27,59.99-5.32,66.74-14.58,6.75-70.29-12.61-77.42-58.82Z" fill="#f2cea3" stroke="#e0917a" stroke-width="4" stroke-linecap="round"/><path d="M2336.59,2478.61c-11.57,16.35-39.35,45.78-57.89,32.71-14.87-10.48.06-22.31,14.92-29.65-13.98,5.31-29.4,8.21-22.79-6.02c5.72-12.3,15.93-18.58,24.37-21.43-9.86,1.19-20.07-.07-17.36-9.91c3.64-13.22,20.12-19.05,28.29-20.39-12.28,1.92-33.51,2.75-23.1-8.88c13.15-14.7,44.08-41.73,57.93-33.57c13.84,8.16,29.59,64.98-4.37,97.14Z" fill="#f2cea3" stroke="#e0917a" stroke-width="4" stroke-linecap="round"/><path d="M2423.94,2181.59c-26.01-54.82-92.33-79.58-122.23-85.1-2.74,35.21-2.66,108,19.54,117.43c22.21,9.43,34.75,73.66,52.81,102.66l-55.31,67.48c4.65,26.58,17.59,79.66,32.1,79.34c18.14-.39,131.99-97.83,149.22-126.9c17.23-29.08-43.62-86.4-76.13-154.91Z" fill="#ffbd3c" stroke="#ebb141" stroke-width="4.30252" stroke-linecap="round"/><path d="M2085.52,2108.1c-18.45,93.37-17.54,120.15-18.45,151.02-.69,23.54,2.59,45.63,0,68.93-2.28,20.54-18.72,63.82-44.94,63.82" fill="none" stroke="#ebb141" stroke-width="4.30252" stroke-linecap="round"/><path d="M2037.4,2818.23l134.73,13.56c6.88,69.84,16.52,214.05,0,232.12-20.65,22.58-151.24,6.23-188.24,0-37-6.24-38.93-18.5-20.43-82.18s75.94,6.24,92.28-20.44c13.08-21.34-7.44-108.78-18.34-143.06Z" fill="#72512b" stroke="#5b4428" stroke-width="4.30252" stroke-linecap="round"/><path d="M2239.84,2882.31l132.6,6.01c3.71,70.08,6.81,214.58-10.51,231.88-21.66,21.63-151.36-.62-188.04-8.52-36.68-7.91-38.06-20.25-16.7-83.02c21.37-62.78,75.58,9.67,93.12-16.24c14.04-20.73-1.13-95.38-10.47-130.11Z" fill="#72512b" stroke="#5b4428" stroke-width="4.30252" stroke-linecap="round"/><path d="M2045.86,2839.59c-7.22-13.27-12.43-25.25-25.5-32.6-2.7-1.52-9.05-6.22-12.21-3.76-9.9,7.69,4.6,17.46,12.07,21.66c8.08,4.54,17.87,10.46,23.65,17.89c5.44,7,2.53-1.57,5.25-7.03c2.85-5.69,14.28-12.43,20.03-14.34c7.07-2.36,18-.1,9.66,8.23-6,6-13.93,8.88-21.45,12.22-2.88,1.28-6.15,1.16-8.95,2.56-3.23,1.61-1.45,5.03-2.55,2.84" fill="none" stroke="#fff" stroke-width="6" stroke-linecap="round"/><path d="M2249.05,2901.11c-7.22-13.27-12.43-25.24-25.49-32.59-2.71-1.53-9.06-6.23-12.22-3.77-9.89,7.7,4.61,17.46,12.07,21.66c8.09,4.55,17.87,10.47,23.65,17.9c5.44,6.99,2.53-1.58,5.26-7.03c2.84-5.69,14.28-12.43,20.02-14.35c7.08-2.36,18-.1,9.66,8.24-5.99,5.99-13.92,8.87-21.44,12.21-2.88,1.28-6.15,1.16-8.95,2.56-3.23,1.62-1.46,5.04-2.56,2.84" transform="translate(0 0.000001)" fill="none" stroke="#fff" stroke-width="6" stroke-linecap="round"/><path d="M2045.86,2851.09c4.9,6.12,15.55,14.5,19.17,21.73" fill="none" stroke="#fff" stroke-width="6" stroke-linecap="round"/><path d="M2249.05,2912.62c4.91,6.11,15.56,14.49,19.17,21.73" fill="none" stroke="#fff" stroke-width="6" stroke-linecap="round"/><path d="M2054.8,2885.6c2.27-2.82,16.62-15.77,16.62-21.73" fill="none" stroke="#fff" stroke-width="6" stroke-linecap="round"/><path d="M2258,2947.13c2.27-2.83,16.62-15.77,16.62-21.73" fill="none" stroke="#fff" stroke-width="6" stroke-linecap="round"/><path d="M2056.08,2885.61c4.7,6.43,11.79,13.35,15.34,20.45" fill="none" stroke="#fff" stroke-width="6" stroke-linecap="round"/><path d="M2259.28,2947.13c4.7,6.44,11.79,13.35,15.34,20.45" fill="none" stroke="#fff" stroke-width="6" stroke-linecap="round"/><path d="M2073.98,2907.33c-5.05,4.1-10.74,11.13-16.62,14.07" fill="none" stroke="#fff" stroke-width="6" stroke-linecap="round"/><path d="M2277.17,2968.86c-5.04,4.1-10.73,11.12-16.62,14.06" fill="none" stroke="#fff" stroke-width="6" stroke-linecap="round"/></g>
<script><![CDATA[
!function(t,n){"object"==typeof exports&&"undefined"!=typeof module?module.exports=n():"function"==typeof __SVGATOR_DEFINE__&&__SVGATOR_DEFINE__.amd?__SVGATOR_DEFINE__(n):((t="undefined"!=typeof globalThis?globalThis:t||self).__SVGATOR_PLAYER__=t.__SVGATOR_PLAYER__||{},t.__SVGATOR_PLAYER__["5c7f360c"]=n())}(this,(function(){"use strict";function t(t,n){var e=Object.keys(t);if(Object.getOwnPropertySymbols){var r=Object.getOwnPropertySymbols(t);n&&(r=r.filter((function(n){return Object.getOwnPropertyDescriptor(t,n).enumerable}))),e.push.apply(e,r)}return e}function n(n){for(var e=1;e<arguments.length;e++){var r=null!=arguments[e]?arguments[e]:{};e%2?t(Object(r),!0).forEach((function(t){u(n,t,r[t])})):Object.getOwnPropertyDescriptors?Object.defineProperties(n,Object.getOwnPropertyDescriptors(r)):t(Object(r)).forEach((function(t){Object.defineProperty(n,t,Object.getOwnPropertyDescriptor(r,t))}))}return n}function e(t){return(e="function"==typeof Symbol&&"symbol"==typeof Symbol.iterator?function(t){return typeof t}:function(t){return t&&"function"==typeof Symbol&&t.constructor===Symbol&&t!==Symbol.prototype?"symbol":typeof t})(t)}function r(t,n){if(!(t instanceof n))throw new TypeError("Cannot call a class as a function")}function i(t,n){for(var e=0;e<n.length;e++){var r=n[e];r.enumerable=r.enumerable||!1,r.configurable=!0,"value"in r&&(r.writable=!0),Object.defineProperty(t,r.key,r)}}function o(t,n,e){return n&&i(t.prototype,n),e&&i(t,e),t}function u(t,n,e){return n in t?Object.defineProperty(t,n,{value:e,enumerable:!0,configurable:!0,writable:!0}):t[n]=e,t}function a(t){return(a=Object.setPrototypeOf?Object.getPrototypeOf:function(t){return t.__proto__||Object.getPrototypeOf(t)})(t)}function l(t,n){return(l=Object.setPrototypeOf||function(t,n){return t.__proto__=n,t})(t,n)}function s(){if("undefined"==typeof Reflect||!Reflect.construct)return!1;if(Reflect.construct.sham)return!1;if("function"==typeof Proxy)return!0;try{return Boolean.prototype.valueOf.call(Reflect.construct(Boolean,[],(function(){}))),!0}catch(t){return!1}}function f(t,n,e){return(f=s()?Reflect.construct:function(t,n,e){var r=[null];r.push.apply(r,n);var i=new(Function.bind.apply(t,r));return e&&l(i,e.prototype),i}).apply(null,arguments)}function c(t,n){if(n&&("object"==typeof n||"function"==typeof n))return n;if(void 0!==n)throw new TypeError("Derived constructors may only return object or undefined");return function(t){if(void 0===t)throw new ReferenceError("this hasn't been initialised - super() hasn't been called");return t}(t)}function h(t,n,e){return(h="undefined"!=typeof Reflect&&Reflect.get?Reflect.get:function(t,n,e){var r=function(t,n){for(;!Object.prototype.hasOwnProperty.call(t,n)&&null!==(t=a(t)););return t}(t,n);if(r){var i=Object.getOwnPropertyDescriptor(r,n);return i.get?i.get.call(e):i.value}})(t,n,e||t)}function v(t){return function(t){if(Array.isArray(t))return y(t)}(t)||function(t){if("undefined"!=typeof Symbol&&null!=t[Symbol.iterator]||null!=t["@@iterator"])return Array.from(t)}(t)||function(t,n){if(!t)return;if("string"==typeof t)return y(t,n);var e=Object.prototype.toString.call(t).slice(8,-1);"Object"===e&&t.constructor&&(e=t.constructor.name);if("Map"===e||"Set"===e)return Array.from(t);if("Arguments"===e||/^(?:Ui|I)nt(?:8|16|32)(?:Clamped)?Array$/.test(e))return y(t,n)}(t)||function(){throw new TypeError("Invalid attempt to spread non-iterable instance.\nIn order to be iterable, non-array objects must have a [Symbol.iterator]() method.")}()}function y(t,n){(null==n||n>t.length)&&(n=t.length);for(var e=0,r=new Array(n);e<n;e++)r[e]=t[e];return r}function g(t,n,e){if(Number.isInteger(t))return t;var r=Math.pow(10,n);return Math[e]((+t+Number.EPSILON)*r)/r}Number.isInteger||(Number.isInteger=function(t){return"number"==typeof t&&isFinite(t)&&Math.floor(t)===t}),Number.EPSILON||(Number.EPSILON=2220446049250313e-31);var d=p(Math.pow(10,-6));function p(t){var n=arguments.length>1&&void 0!==arguments[1]?arguments[1]:6;return g(t,n,"round")}function m(t,n){var e=arguments.length>2&&void 0!==arguments[2]?arguments[2]:d;return Math.abs(t-n)<e}p(Math.pow(10,-2)),p(Math.pow(10,-4));var b=Math.PI/180;function w(t){return t}function A(t,n,e){var r=1-e;return 3*e*r*(t*r+n*e)+e*e*e}function _(){var t=arguments.length>0&&void 0!==arguments[0]?arguments[0]:0,n=arguments.length>1&&void 0!==arguments[1]?arguments[1]:0,e=arguments.length>2&&void 0!==arguments[2]?arguments[2]:1,r=arguments.length>3&&void 0!==arguments[3]?arguments[3]:1;return t<0||t>1||e<0||e>1?null:m(t,n)&&m(e,r)?w:function(i){if(i<=0)return t>0?i*n/t:0===n&&e>0?i*r/e:0;if(i>=1)return e<1?1+(i-1)*(r-1)/(e-1):1===e&&t<1?1+(i-1)*(n-1)/(t-1):1;for(var o,u=0,a=1;u<a;){var l=A(t,e,o=(u+a)/2);if(m(i,l))break;l<i?u=o:a=o}return A(n,r,o)}}function x(){return 1}function k(t){return 1===t?1:0}function S(){var t=arguments.length>0&&void 0!==arguments[0]?arguments[0]:1,n=arguments.length>1&&void 0!==arguments[1]?arguments[1]:0;if(1===t){if(0===n)return k;if(1===n)return x}var e=1/t;return function(t){return t>=1?1:(t+=n*e)-t%e}}var O=Math.sin,j=Math.cos,M=Math.acos,E=Math.asin,P=Math.tan,I=Math.atan2,R=Math.PI/180,F=180/Math.PI,N=Math.sqrt,T=function(){function t(){var n=arguments.length>0&&void 0!==arguments[0]?arguments[0]:1,e=arguments.length>1&&void 0!==arguments[1]?arguments[1]:0,i=arguments.length>2&&void 0!==arguments[2]?arguments[2]:0,o=arguments.length>3&&void 0!==arguments[3]?arguments[3]:1,u=arguments.length>4&&void 0!==arguments[4]?arguments[4]:0,a=arguments.length>5&&void 0!==arguments[5]?arguments[5]:0;r(this,t),this.m=[n,e,i,o,u,a],this.i=null,this.w=null,this.s=null}return o(t,[{key:"determinant",get:function(){var t=this.m;return t[0]*t[3]-t[1]*t[2]}},{key:"isIdentity",get:function(){if(null===this.i){var t=this.m;this.i=1===t[0]&&0===t[1]&&0===t[2]&&1===t[3]&&0===t[4]&&0===t[5]}return this.i}},{key:"point",value:function(t,n){var e=this.m;return{x:e[0]*t+e[2]*n+e[4],y:e[1]*t+e[3]*n+e[5]}}},{key:"translateSelf",value:function(){var t=arguments.length>0&&void 0!==arguments[0]?arguments[0]:0,n=arguments.length>1&&void 0!==arguments[1]?arguments[1]:0;if(!t&&!n)return this;var e=this.m;return e[4]+=e[0]*t+e[2]*n,e[5]+=e[1]*t+e[3]*n,this.w=this.s=this.i=null,this}},{key:"rotateSelf",value:function(){var t=arguments.length>0&&void 0!==arguments[0]?arguments[0]:0;if(t%=360){var n=O(t*=R),e=j(t),r=this.m,i=r[0],o=r[1];r[0]=i*e+r[2]*n,r[1]=o*e+r[3]*n,r[2]=r[2]*e-i*n,r[3]=r[3]*e-o*n,this.w=this.s=this.i=null}return this}},{key:"scaleSelf",value:function(){var t=arguments.length>0&&void 0!==arguments[0]?arguments[0]:1,n=arguments.length>1&&void 0!==arguments[1]?arguments[1]:1;if(1!==t||1!==n){var e=this.m;e[0]*=t,e[1]*=t,e[2]*=n,e[3]*=n,this.w=this.s=this.i=null}return this}},{key:"skewSelf",value:function(t,n){if(n%=360,(t%=360)||n){var e=this.m,r=e[0],i=e[1],o=e[2],u=e[3];t&&(t=P(t*R),e[2]+=r*t,e[3]+=i*t),n&&(n=P(n*R),e[0]+=o*n,e[1]+=u*n),this.w=this.s=this.i=null}return this}},{key:"resetSelf",value:function(){var t=arguments.length>0&&void 0!==arguments[0]?arguments[0]:1,n=arguments.length>1&&void 0!==arguments[1]?arguments[1]:0,e=arguments.length>2&&void 0!==arguments[2]?arguments[2]:0,r=arguments.length>3&&void 0!==arguments[3]?arguments[3]:1,i=arguments.length>4&&void 0!==arguments[4]?arguments[4]:0,o=arguments.length>5&&void 0!==arguments[5]?arguments[5]:0,u=this.m;return u[0]=t,u[1]=n,u[2]=e,u[3]=r,u[4]=i,u[5]=o,this.w=this.s=this.i=null,this}},{key:"recomposeSelf",value:function(){var t=arguments.length>0&&void 0!==arguments[0]?arguments[0]:null,n=arguments.length>1&&void 0!==arguments[1]?arguments[1]:null,e=arguments.length>2&&void 0!==arguments[2]?arguments[2]:null,r=arguments.length>3&&void 0!==arguments[3]?arguments[3]:null,i=arguments.length>4&&void 0!==arguments[4]?arguments[4]:null;return this.isIdentity||this.resetSelf(),t&&(t.x||t.y)&&this.translateSelf(t.x,t.y),n&&this.rotateSelf(n),e&&(e.x&&this.skewSelf(e.x,0),e.y&&this.skewSelf(0,e.y)),!r||1===r.x&&1===r.y||this.scaleSelf(r.x,r.y),i&&(i.x||i.y)&&this.translateSelf(i.x,i.y),this}},{key:"decompose",value:function(){var t=arguments.length>0&&void 0!==arguments[0]?arguments[0]:0,n=arguments.length>1&&void 0!==arguments[1]?arguments[1]:0,e=this.m,r=e[0]*e[0]+e[1]*e[1],i=[[e[0],e[1]],[e[2],e[3]]],o=N(r);if(0===o)return{origin:{x:p(e[4]),y:p(e[5])},translate:{x:p(t),y:p(n)},scale:{x:0,y:0},skew:{x:0,y:0},rotate:0};i[0][0]/=o,i[0][1]/=o;var u=e[0]*e[3]-e[1]*e[2]<0;u&&(o=-o);var a=i[0][0]*i[1][0]+i[0][1]*i[1][1];i[1][0]-=i[0][0]*a,i[1][1]-=i[0][1]*a;var l=N(i[1][0]*i[1][0]+i[1][1]*i[1][1]);if(0===l)return{origin:{x:p(e[4]),y:p(e[5])},translate:{x:p(t),y:p(n)},scale:{x:p(o),y:0},skew:{x:0,y:0},rotate:0};i[1][0]/=l,i[1][1]/=l,a/=l;var s=0;return i[1][1]<0?(s=M(i[1][1])*F,i[0][1]<0&&(s=360-s)):s=E(i[0][1])*F,u&&(s=-s),a=I(a,N(i[0][0]*i[0][0]+i[0][1]*i[0][1]))*F,u&&(a=-a),{origin:{x:p(e[4]),y:p(e[5])},translate:{x:p(t),y:p(n)},scale:{x:p(o),y:p(l)},skew:{x:p(a),y:0},rotate:p(s)}}},{key:"clone",value:function(){var t=this.m;return new this.constructor(t[0],t[1],t[2],t[3],t[4],t[5])}},{key:"toString",value:function(){var t=arguments.length>0&&void 0!==arguments[0]?arguments[0]:" ";if(null===this.s){var n=this.m.map((function(t){return p(t)}));1===n[0]&&0===n[1]&&0===n[2]&&1===n[3]?this.s="translate("+n[4]+t+n[5]+")":this.s="matrix("+n.join(t)+")"}return this.s}}],[{key:"create",value:function(t){return t?Array.isArray(t)?f(this,v(t)):t instanceof this?t.clone():(new this).recomposeSelf(t.origin,t.rotate,t.skew,t.scale,t.translate):new this}}]),t}();function q(t,n,e){return t>=.5?e:n}function B(t,n,e){return 0===t||n===e?n:t*(e-n)+n}function D(t,n,e){var r=B(t,n,e);return r<=0?0:r}function L(t,n,e){var r=B(t,n,e);return r<=0?0:r>=1?1:r}function C(t,n,e){return 0===t?n:1===t?e:{x:B(t,n.x,e.x),y:B(t,n.y,e.y)}}function V(t,n,e){var r=function(t,n,e){return Math.round(B(t,n,e))}(t,n,e);return r<=0?0:r>=255?255:r}function G(t,n,e){return 0===t?n:1===t?e:{r:V(t,n.r,e.r),g:V(t,n.g,e.g),b:V(t,n.b,e.b),a:B(t,null==n.a?1:n.a,null==e.a?1:e.a)}}function z(t,n){for(var e=[],r=0;r<t;r++)e.push(n);return e}function Y(t,n){if(--n<=0)return t;var e=(t=Object.assign([],t)).length;do{for(var r=0;r<e;r++)t.push(t[r])}while(--n>0);return t}var $,U=function(){function t(n){r(this,t),this.list=n,this.length=n.length}return o(t,[{key:"setAttribute",value:function(t,n){for(var e=this.list,r=0;r<this.length;r++)e[r].setAttribute(t,n)}},{key:"removeAttribute",value:function(t){for(var n=this.list,e=0;e<this.length;e++)n[e].removeAttribute(t)}},{key:"style",value:function(t,n){for(var e=this.list,r=0;r<this.length;r++)e[r].style[t]=n}}]),t}(),Q=/-./g,H=function(t,n){return n.toUpperCase()};function J(t){return"function"==typeof t?t:q}function Z(t){return t?"function"==typeof t?t:Array.isArray(t)?function(t){var n=arguments.length>1&&void 0!==arguments[1]?arguments[1]:w;if(!Array.isArray(t))return n;switch(t.length){case 1:return S(t[0])||n;case 2:return S(t[0],t[1])||n;case 4:return _(t[0],t[1],t[2],t[3])||n}return n}(t,null):function(t,n){var e=arguments.length>2&&void 0!==arguments[2]?arguments[2]:w;switch(t){case"linear":return w;case"steps":return S(n.steps||1,n.jump||0)||e;case"bezier":case"cubic-bezier":return _(n.x1||0,n.y1||0,n.x2||0,n.y2||0)||e}return e}(t.type,t.value,null):null}function K(t,n,e){var r=arguments.length>3&&void 0!==arguments[3]&&arguments[3],i=n.length-1;if(t<=n[0].t)return r?[0,0,n[0].v]:n[0].v;if(t>=n[i].t)return r?[i,1,n[i].v]:n[i].v;var o,u=n[0],a=null;for(o=1;o<=i;o++){if(!(t>n[o].t)){a=n[o];break}u=n[o]}return null==a?r?[i,1,n[i].v]:n[i].v:u.t===a.t?r?[o,1,a.v]:a.v:(t=(t-u.t)/(a.t-u.t),u.e&&(t=u.e(t)),r?[o,t,e(t,u.v,a.v)]:e(t,u.v,a.v))}function W(t,n){var e=arguments.length>2&&void 0!==arguments[2]?arguments[2]:null;return t&&t.length?"function"!=typeof n?null:("function"!=typeof e&&(e=null),function(r){var i=K(r,t,n);return null!=i&&e&&(i=e(i)),i}):null}function X(t,n){return t.t-n.t}function tt(t,n,r,i,o){var u,a="@"===r[0],l="#"===r[0],s=$[r],f=q;switch(a?(u=r.substr(1),r=u.replace(Q,H)):l&&(r=r.substr(1)),e(s)){case"function":if(f=s(i,o,K,Z,r,a,n,t),l)return f;break;case"string":f=W(i,J(s));break;case"object":if((f=W(i,J(s.i),s.f))&&"function"==typeof s.u)return s.u(n,f,r,a,t)}return f?function(t,n,e){if(arguments.length>3&&void 0!==arguments[3]&&arguments[3])return t instanceof U?function(r){return t.style(n,e(r))}:function(r){return t.style[n]=e(r)};if(Array.isArray(n)){var r=n.length;return function(i){var o=e(i);if(null==o)for(var u=0;u<r;u++)t[u].removeAttribute(n);else for(var a=0;a<r;a++)t[a].setAttribute(n,o)}}return function(r){var i=e(r);null==i?t.removeAttribute(n):t.setAttribute(n,i)}}(n,r,f,a):null}function nt(t,n,r,i){if(!i||"object"!==e(i))return null;var o=null,u=null;return Array.isArray(i)?u=function(t){if(!t||!t.length)return null;for(var n=0;n<t.length;n++)t[n].e&&(t[n].e=Z(t[n].e));return t.sort(X)}(i):(u=i.keys,o=i.data||null),u?tt(t,n,r,u,o):null}function et(t,n,e){if(!e)return null;var r=[];for(var i in e)if(e.hasOwnProperty(i)){var o=nt(t,n,i,e[i]);o&&r.push(o)}return r.length?r:null}function rt(t,n){if(!n.settings.duration||n.settings.duration<0)return null;var e,r,i,o,u,a=function(t,n){if(!n)return null;var e=[];if(Array.isArray(n))for(var r=n.length,i=0;i<r;i++){var o=n[i];if(2===o.length){var u=null;if("string"==typeof o[0])u=t.getElementById(o[0]);else if(Array.isArray(o[0])){u=[];for(var a=0;a<o[0].length;a++)if("string"==typeof o[0][a]){var l=t.getElementById(o[0][a]);l&&u.push(l)}u=u.length?1===u.length?u[0]:new U(u):null}if(u){var s=et(t,u,o[1]);s&&(e=e.concat(s))}}}else for(var f in n)if(n.hasOwnProperty(f)){var c=t.getElementById(f);if(c){var h=et(t,c,n[f]);h&&(e=e.concat(h))}}return e.length?e:null}(t,n.elements);return a?(e=a,r=n.settings,i=r.duration,o=e.length,u=null,function(t,n){var a=r.iterations||1/0,l=(r.alternate&&a%2==0)^r.direction>0?i:0,s=t%i,f=1+(t-s)/i;n*=r.direction,r.alternate&&f%2==0&&(n=-n);var c=!1;if(f>a)s=l,c=!0,-1===r.fill&&(s=r.direction>0?0:i);else if(n<0&&(s=i-s),s===u)return!1;u=s;for(var h=0;h<o;h++)e[h](s);return c}):null}function it(t,n){for(var e=n.querySelectorAll("svg"),r=0;r<e.length;r++)if(e[r].id===t.root&&!e[r].svgatorAnimation)return e[r].svgatorAnimation=!0,e[r];return null}function ot(t){var n=function(t){return t.shadowRoot};return document?Array.from(t.querySelectorAll(":not("+["a","area","audio","br","canvas","circle","datalist","embed","g","head","hr","iframe","img","input","link","object","path","polygon","rect","script","source","style","svg","title","track","video"].join()+")")).filter(n).map(n):[]}function ut(t){var n=arguments.length>1&&void 0!==arguments[1]?arguments[1]:document,e=arguments.length>2&&void 0!==arguments[2]?arguments[2]:0,r=it(t,n);if(r)return r;if(e>=20)return null;for(var i=ot(n),o=0;o<i.length;o++){var u=ut(t,i[o],e+1);if(u)return u}return null}function at(t,n){if($=n,!t||!t.root||!Array.isArray(t.animations))return null;var e=ut(t);if(!e)return null;var r=t.animations.map((function(t){return rt(e,t)})).filter((function(t){return!!t}));return r.length?{svg:e,animations:r,animationSettings:t.animationSettings,options:t.options||void 0}:null}function lt(t){var n=arguments.length>1&&void 0!==arguments[1]?arguments[1]:null,e=arguments.length>2&&void 0!==arguments[2]?arguments[2]:Number,r=arguments.length>3&&void 0!==arguments[3]?arguments[3]:"undefined"!=typeof BigInt&&BigInt,i="0x"+(t.replace(/[^0-9a-fA-F]+/g,"")||27);return n&&r&&e.isSafeInteger&&!e.isSafeInteger(+i)?e(r(i))%n+n:+i}function st(t,n,e){return!t||!e||n>t.length?t:t.substring(0,n)+st(t.substring(n+1),e,e)}function ft(t){var n=arguments.length>1&&void 0!==arguments[1]?arguments[1]:27;return!t||t%n?t%n:[0,1].includes(n)?n:ft(t/n,n)}function ct(t,n,e){if(t&&t.length){var r=lt(e),i=ft(r)+5,o=st(t,ft(r,5),i);return o=o.replace(/\x7c$/g,"==").replace(/\x2f$/g,"="),o=function(t,n,e){var r=+("0x"+t.substring(0,4));t=t.substring(4);for(var i=lt(n,r)%r+e%27,o=[],u=0;u<t.length;u+=2)if("|"!==t[u]){var a=+("0x"+t[u]+t[u+1])-i;o.push(a)}else{var l=+("0x"+t.substring(u+1,u+1+4))-i;u+=3,o.push(l)}return String.fromCharCode.apply(String,o)}(o=(o=atob(o)).replace(/[\x41-\x5A]/g,""),n,r),o=JSON.parse(o)}}var ht=[{key:"alternate",def:!1},{key:"fill",def:1},{key:"iterations",def:0},{key:"direction",def:1},{key:"speed",def:1},{key:"fps",def:100}],vt=function(){function t(n,e){var i=this,o=arguments.length>2&&void 0!==arguments[2]?arguments[2]:null;r(this,t),this._id=0,this._running=!1,this._rollingBack=!1,this._animations=n,this._settings=e,(!o||o<"2022-05-02")&&delete this._settings.speed,ht.forEach((function(t){i._settings[t.key]=i._settings[t.key]||t.def})),this.duration=e.duration,this.offset=e.offset||0,this.rollbackStartOffset=0}return o(t,[{key:"alternate",get:function(){return this._settings.alternate}},{key:"fill",get:function(){return this._settings.fill}},{key:"iterations",get:function(){return this._settings.iterations}},{key:"direction",get:function(){return this._settings.direction}},{key:"speed",get:function(){return this._settings.speed}},{key:"fps",get:function(){return this._settings.fps}},{key:"maxFiniteDuration",get:function(){return this.iterations>0?this.iterations*this.duration:this.duration}},{key:"_apply",value:function(t){for(var n=arguments.length>1&&void 0!==arguments[1]?arguments[1]:{},e=this._animations,r=e.length,i=0,o=0;o<r;o++)n[o]?i++:(n[o]=e[o](t,1),n[o]&&i++);return i}},{key:"_rollback",value:function(t){var n=this,e=1/0,r=null;this.rollbackStartOffset=t,this._rollingBack=!0,this._running=!0;this._id=window.requestAnimationFrame((function i(o){if(n._rollingBack){null==r&&(r=o);var u=Math.round(t-(o-r)*n.speed);if(u>n.duration&&e!==1/0){var a=!!n.alternate&&u/n.duration%2>1,l=u%n.duration;u=(l+=a?n.duration:0)||n.duration}var s=(n.fps?1e3/n.fps:0)*n.speed,f=Math.max(0,u);f<=e-s&&(n.offset=f,e=f,n._apply(f));var c=n.iterations>0&&-1===n.fill&&u>=n.maxFiniteDuration;(u<=0||n.offset<u||c)&&n.stop(),n._id=window.requestAnimationFrame(i)}}))}},{key:"_start",value:function(){var t=this,n=arguments.length>0&&void 0!==arguments[0]?arguments[0]:0,e=-1/0,r=null,i={};this._running=!0;var o=function o(u){null==r&&(r=u);var a=Math.round((u-r)*t.speed+n),l=(t.fps?1e3/t.fps:0)*t.speed;if(a>=e+l&&!t._rollingBack&&(t.offset=a,e=a,t._apply(a,i)===t._animations.length))return void t.pause(!0);t._id=window.requestAnimationFrame(o)};this._id=window.requestAnimationFrame(o)}},{key:"_pause",value:function(){this._id&&window.cancelAnimationFrame(this._id),this._running=!1}},{key:"play",value:function(){if(!this._running)return this._rollingBack?this._rollback(this.offset):this._start(this.offset)}},{key:"stop",value:function(){this._pause(),this.offset=0,this.rollbackStartOffset=0,this._rollingBack=!1,this._apply(0)}},{key:"reachedToEnd",value:function(){return this.iterations>0&&this.offset>=this.iterations*this.duration}},{key:"restart",value:function(){var t=arguments.length>0&&void 0!==arguments[0]&&arguments[0];this.stop(t),this.play(t)}},{key:"pause",value:function(){this._pause()}},{key:"reverse",value:function(){this.direction=-this.direction}}],[{key:"build",value:function(t,n){delete t.animationSettings,t.options=ct(t.options,t.root,"5c7f360c"),t.animations.map((function(n){n.settings=ct(n.s,t.root,"5c7f360c"),delete n.s,t.animationSettings||(t.animationSettings=n.settings)}));var e=t.version;if(!(t=at(t,n)))return null;var r=t.options||{},i=new this(t.animations,t.animationSettings,e);return{el:t.svg,options:r,player:i}}},{key:"push",value:function(t){return this.build(t)}},{key:"init",value:function(){var t=this,n=window.__SVGATOR_PLAYER__&&window.__SVGATOR_PLAYER__["5c7f360c"];Array.isArray(n)&&n.splice(0).forEach((function(n){return t.build(n)}))}}]),t}();function yt(t){return p(t)+""}function gt(t){var n=arguments.length>1&&void 0!==arguments[1]?arguments[1]:" ";return t&&t.length?t.map(yt).join(n):""}function dt(t){if(!t)return"transparent";if(null==t.a||t.a>=1){var n=function(t){return 1===(t=parseInt(t).toString(16)).length?"0"+t:t},e=function(t){return t.charAt(0)===t.charAt(1)},r=n(t.r),i=n(t.g),o=n(t.b);return e(r)&&e(i)&&e(o)&&(r=r.charAt(0),i=i.charAt(0),o=o.charAt(0)),"#"+r+i+o}return"rgba("+t.r+","+t.g+","+t.b+","+t.a+")"}function pt(t){return t?"url(#"+t+")":"none"}!function(){for(var t=0,n=["ms","moz","webkit","o"],e=0;e<n.length&&!window.requestAnimationFrame;++e)window.requestAnimationFrame=window[n[e]+"RequestAnimationFrame"],window.cancelAnimationFrame=window[n[e]+"CancelAnimationFrame"]||window[n[e]+"CancelRequestAnimationFrame"];window.requestAnimationFrame||(window.requestAnimationFrame=function(n){var e=Date.now(),r=Math.max(0,16-(e-t)),i=window.setTimeout((function(){n(e+r)}),r);return t=e+r,i},window.cancelAnimationFrame=window.clearTimeout)}();var mt={f:null,i:function(t,n,e){return 0===t?n:1===t?e:{x:D(t,n.x,e.x),y:D(t,n.y,e.y)}},u:function(t,n){return function(e){var r=n(e);t.setAttribute("rx",yt(r.x)),t.setAttribute("ry",yt(r.y))}}},bt={f:null,i:function(t,n,e){return 0===t?n:1===t?e:{width:D(t,n.width,e.width),height:D(t,n.height,e.height)}},u:function(t,n){return function(e){var r=n(e);t.setAttribute("width",yt(r.width)),t.setAttribute("height",yt(r.height))}}};Object.freeze({M:2,L:2,Z:0,H:1,V:1,C:6,Q:4,T:2,S:4,A:7});var wt={},At=null;function _t(t){var n=function(){if(At)return At;if("object"!==("undefined"==typeof document?"undefined":e(document))||!document.createElementNS)return{};var t=document.createElementNS("http://www.w3.org/2000/svg","svg");return t&&t.style?(t.style.position="absolute",t.style.opacity="0.01",t.style.zIndex="-9999",t.style.left="-9999px",t.style.width="1px",t.style.height="1px",At={svg:t}):{}}().svg;if(!n)return function(t){return null};var r=document.createElementNS(n.namespaceURI,"path");r.setAttributeNS(null,"d",t),r.setAttributeNS(null,"fill","none"),r.setAttributeNS(null,"stroke","none"),n.appendChild(r);var i=r.getTotalLength();return function(t){var n=r.getPointAtLength(i*t);return{x:n.x,y:n.y}}}function xt(t){return wt[t]?wt[t]:wt[t]=_t(t)}function kt(t,n,e,r){if(!t||!r)return!1;var i=["M",t.x,t.y];if(n&&e&&(i.push("C"),i.push(n.x),i.push(n.y),i.push(e.x),i.push(e.y)),n?!e:e){var o=n||e;i.push("Q"),i.push(o.x),i.push(o.y)}return n||e||i.push("L"),i.push(r.x),i.push(r.y),i.join(" ")}function St(t,n,e,r){var i=arguments.length>4&&void 0!==arguments[4]?arguments[4]:1,o=kt(t,n,e,r),u=xt(o);try{return u(i)}catch(t){return null}}function Ot(t,n,e){return t+(n-t)*e}function jt(t,n,e){var r=arguments.length>3&&void 0!==arguments[3]&&arguments[3],i={x:Ot(t.x,n.x,e),y:Ot(t.y,n.y,e)};return r&&(i.a=Mt(t,n)),i}function Mt(t,n){return Math.atan2(n.y-t.y,n.x-t.x)}function Et(t,n,e,r){var i=1-r;return i*i*t+2*i*r*n+r*r*e}function Pt(t,n,e,r){return 2*(1-r)*(n-t)+2*r*(e-n)}function It(t,n,e,r){var i=arguments.length>4&&void 0!==arguments[4]&&arguments[4],o=St(t,n,null,e,r);return o||(o={x:Et(t.x,n.x,e.x,r),y:Et(t.y,n.y,e.y,r)}),i&&(o.a=Rt(t,n,e,r)),o}function Rt(t,n,e,r){return Math.atan2(Pt(t.y,n.y,e.y,r),Pt(t.x,n.x,e.x,r))}function Ft(t,n,e,r,i){var o=i*i;return i*o*(r-t+3*(n-e))+3*o*(t+e-2*n)+3*i*(n-t)+t}function Nt(t,n,e,r,i){var o=1-i;return 3*(o*o*(n-t)+2*o*i*(e-n)+i*i*(r-e))}function Tt(t,n,e,r,i){var o=arguments.length>5&&void 0!==arguments[5]&&arguments[5],u=St(t,n,e,r,i);return u||(u={x:Ft(t.x,n.x,e.x,r.x,i),y:Ft(t.y,n.y,e.y,r.y,i)}),o&&(u.a=qt(t,n,e,r,i)),u}function qt(t,n,e,r,i){return Math.atan2(Nt(t.y,n.y,e.y,r.y,i),Nt(t.x,n.x,e.x,r.x,i))}function Bt(t,n,e){var r=arguments.length>3&&void 0!==arguments[3]&&arguments[3];if(Lt(n)){if(Ct(e))return It(n,e.start,e,t,r)}else if(Lt(e)){if(Vt(n))return It(n,n.end,e,t,r)}else{if(Vt(n))return Ct(e)?Tt(n,n.end,e.start,e,t,r):It(n,n.end,e,t,r);if(Ct(e))return It(n,e.start,e,t,r)}return jt(n,e,t,r)}function Dt(t,n,e){var r=Bt(t,n,e,!0);return r.a=function(t){return arguments.length>1&&void 0!==arguments[1]&&arguments[1]?t+Math.PI:t}(r.a)/b,r}function Lt(t){return!t.type||"corner"===t.type}function Ct(t){return null!=t.start&&!Lt(t)}function Vt(t){return null!=t.end&&!Lt(t)}var Gt=new T;var zt={f:yt,i:B},Yt={f:yt,i:L};function $t(t,n,e){return t.map((function(t){return function(t,n,e){var r=t.v;if(!r||"g"!==r.t||r.s||!r.v||!r.r)return t;var i=e.getElementById(r.r),o=i&&i.querySelectorAll("stop")||[];return r.s=r.v.map((function(t,n){var e=o[n]&&o[n].getAttribute("offset");return{c:t,o:e=p(parseInt(e)/100)}})),delete r.v,t}(t,0,e)}))}var Ut={gt:"gradientTransform",c:{x:"cx",y:"cy"},rd:"r",f:{x:"x1",y:"y1"},to:{x:"x2",y:"y2"}};function Qt(t,n,r,i,o,u,a,l){return $t(t,0,l),n=function(t,n,e){for(var r,i,o,u=t.length-1,a={},l=0;l<=u;l++)(r=t[l]).e&&(r.e=n(r.e)),r.v&&"g"===(i=r.v).t&&i.r&&(o=e.getElementById(i.r))&&(a[i.r]={e:o,s:o.querySelectorAll("stop")});return a}(t,i,l),function(i){var o=r(i,t,Ht);if(!o)return"none";if("c"===o.t)return dt(o.v);if("g"===o.t){if(!n[o.r])return pt(o.r);var u=n[o.r];return function(t,n){for(var e=t.s,r=e.length;r<n.length;r++){var i=e[e.length-1].cloneNode();i.id=Kt(i.id),t.e.appendChild(i),e=t.s=t.e.querySelectorAll("stop")}for(var o=0,u=e.length,a=n.length-1;o<u;o++)e[o].setAttribute("stop-color",dt(n[Math.min(o,a)].c)),e[o].setAttribute("offset",n[Math.min(o,a)].o)}(u,o.s),Object.keys(Ut).forEach((function(t){if(void 0!==o[t])if("object"!==e(Ut[t])){var n,r="gt"===t?(n=o[t],Array.isArray(n)?"matrix("+n.join(" ")+")":""):o[t],i=Ut[t];u.e.setAttribute(i,r)}else Object.keys(Ut[t]).forEach((function(n){if(void 0!==o[t][n]){var e=o[t][n],r=Ut[t][n];u.e.setAttribute(r,e)}}))})),pt(o.r)}return"none"}}function Ht(t,e,r){if(0===t)return e;if(1===t)return r;if(e&&r){var i=e.t;if(i===r.t)switch(e.t){case"c":return{t:i,v:G(t,e.v,r.v)};case"g":if(e.r===r.r){var o={t:i,s:Jt(t,e.s,r.s),r:e.r};return e.gt&&r.gt&&(o.gt=function(t,n,e){var r=n.length;if(r!==e.length)return q(t,n,e);for(var i=new Array(r),o=0;o<r;o++)i[o]=B(t,n[o],e[o]);return i}(t,e.gt,r.gt)),e.c?(o.c=C(t,e.c,r.c),o.rd=D(t,e.rd,r.rd)):e.f&&(o.f=C(t,e.f,r.f),o.to=C(t,e.to,r.to)),o}}if("c"===e.t&&"g"===r.t||"c"===r.t&&"g"===e.t){var u="c"===e.t?e:r,a="g"===e.t?n({},e):n({},r),l=a.s.map((function(t){return{c:u.v,o:t.o}}));return a.s="c"===e.t?Jt(t,l,a.s):Jt(t,a.s,l),a}}return q(t,e,r)}function Jt(t,n,e){if(n.length===e.length)return n.map((function(n,r){return Zt(t,n,e[r])}));for(var r=Math.max(n.length,e.length),i=[],o=0;o<r;o++){var u=Zt(t,n[Math.min(o,n.length-1)],e[Math.min(o,e.length-1)]);i.push(u)}return i}function Zt(t,n,e){return{o:L(t,n.o,e.o||0),c:G(t,n.c,e.c||{})}}function Kt(t){return t.replace(/-fill-([0-9]+)$/,(function(t,n){return"-fill-"+(+n+1)}))}var Wt={fill:Qt,"fill-opacity":Yt,stroke:Qt,"stroke-opacity":Yt,"stroke-width":zt,"stroke-dashoffset":{f:yt,i:B},"stroke-dasharray":{f:function(t){var n=arguments.length>1&&void 0!==arguments[1]?arguments[1]:" ";return t&&t.length>0&&(t=t.map((function(t){return p(t,4)}))),gt(t,n)},i:function(t,n,e){var r,i,o,u=n.length,a=e.length;if(u!==a)if(0===u)n=z(u=a,0);else if(0===a)a=u,e=z(u,0);else{var l=(o=(r=u)*(i=a)/function(t,n){for(var e;n;)e=n,n=t%n,t=e;return t||1}(r,i))<0?-o:o;n=Y(n,Math.floor(l/u)),e=Y(e,Math.floor(l/a)),u=a=l}for(var s=[],f=0;f<u;f++)s.push(p(D(t,n[f],e[f])));return s}},opacity:Yt,transform:function(t,n,r,i){if(!(t=function(t,n){if(!t||"object"!==e(t))return null;var r=!1;for(var i in t)t.hasOwnProperty(i)&&(t[i]&&t[i].length?(t[i].forEach((function(t){t.e&&(t.e=n(t.e))})),r=!0):delete t[i]);return r?t:null}(t,i)))return null;var o=function(e,i,o){var u=arguments.length>3&&void 0!==arguments[3]?arguments[3]:null;return t[e]?r(i,t[e],o):n&&n[e]?n[e]:u};return n&&n.a&&t.o?function(n){var e=r(n,t.o,Dt);return Gt.recomposeSelf(e,o("r",n,B,0)+e.a,o("k",n,C),o("s",n,C),o("t",n,C)).toString()}:function(t){return Gt.recomposeSelf(o("o",t,Bt,null),o("r",t,B,0),o("k",t,C),o("s",t,C),o("t",t,C)).toString()}},r:zt,"#size":bt,"#radius":mt,_:function(t,n){if(Array.isArray(t))for(var e=0;e<t.length;e++)this[t[e]]=n;else this[t]=n}},Xt=function(t){!function(t,n){if("function"!=typeof n&&null!==n)throw new TypeError("Super expression must either be null or a function");t.prototype=Object.create(n&&n.prototype,{constructor:{value:t,writable:!0,configurable:!0}}),n&&l(t,n)}(u,t);var n,e,i=(n=u,e=s(),function(){var t,r=a(n);if(e){var i=a(this).constructor;t=Reflect.construct(r,arguments,i)}else t=r.apply(this,arguments);return c(this,t)});function u(){return r(this,u),i.apply(this,arguments)}return o(u,null,[{key:"build",value:function(t){var n=h(a(u),"build",this).call(this,t,Wt);if(!n)return null;n.el,n.options,function(t,n,e){t.play()}(n.player)}}]),u}(vt);return Xt.init(),Xt}));
(function(s,i,o,w,d,a,b){w[o]=w[o]||{};w[o][s]=w[o][s]||[];w[o][s].push(i);})('5c7f360c',{"root":"epve1Ymxduk1","version":"2022-05-04","animations":[{"elements":{"epve1Ymxduk5":{"transform":{"data":{"o":{"x":1033.90165,"y":859.651459,"type":"corner"},"t":{"x":-1033.90165,"y":-859.651459}},"keys":{"s":[{"t":1400,"v":{"x":1,"y":1}},{"t":2000,"v":{"x":1.1,"y":1.1}},{"t":2100,"v":{"x":1,"y":1}}]}},"opacity":[{"t":1400,"v":0},{"t":2100,"v":1}]},"epve1Ymxduk33":{"transform":{"data":{"o":{"x":2021.279968,"y":1383.52771,"type":"corner"},"t":{"x":-2021.279968,"y":-1383.52771}},"keys":{"s":[{"t":700,"v":{"x":1,"y":1}},{"t":1300,"v":{"x":1.1,"y":1.1}},{"t":1400,"v":{"x":1,"y":1}}]}},"opacity":[{"t":700,"v":0},{"t":1400,"v":1}]},"epve1Ymxduk35":{"transform":{"data":{"o":{"x":2264.936524,"y":1479.764466,"type":"corner"},"t":{"x":-2264.936523,"y":-1479.764465}},"keys":{"s":[{"t":0,"v":{"x":1,"y":1}},{"t":600,"v":{"x":1.1,"y":1.1}},{"t":700,"v":{"x":1,"y":1}}]}},"opacity":[{"t":0,"v":0},{"t":700,"v":1}]}},"s":"MDDA1ZDlkNDQ4Nkc5NzQk0ODM5NjhiRjkxOTAF0NDVjNTU1MjUyNTI0KZTQ0Rzg2OGI5NDg3OVDU5NjhiOTE5MDQ0SDLVjNTM0ZTQ0RzhiOTYU4Nzk0ODM5NjhiOTE5BMDk1NDQ1YzUyNGU0NWDg4OGI4ZThlWTQ0NWYM1MzRlNDQ4MzhlOTYA4Nzk0OTA4Mzk2UDg3FNDQ1Yzg4ODM4ZTk1OUDc0ZVRHNDQ5NTkyODYc4Nzg2RzQ0NWM1MzRNlNDQ4ODkyOTU0NDVjNNTM1MjUyOWY/"}],"options":"MVDAxMDg4MmY4MDgxNmRU3ZjgxMmY0N1cyZlYK3OTdjNmU3MTJmOGE/V"},'__SVGATOR_PLAYER__',window,document)
]]></script>
</svg>
